G04 EAGLE Gerber RS-274X export*
G75*
%MOMM*%
%FSLAX34Y34*%
%LPD*%
%INBottom Copper*%
%IPPOS*%
%AMOC8*
5,1,8,0,0,1.08239X$1,22.5*%
G01*
%ADD10C,2.000000*%
%ADD11R,1.778000X1.778000*%
%ADD12C,1.778000*%
%ADD13C,2.500000*%
%ADD14C,2.250000*%
%ADD15R,3.683000X3.683000*%
%ADD16C,3.683000*%
%ADD17C,1.930400*%
%ADD18C,0.254000*%

G36*
X81488Y218016D02*
X81488Y218016D01*
X81505Y218014D01*
X81688Y218036D01*
X81870Y218054D01*
X81888Y218059D01*
X81905Y218061D01*
X82080Y218118D01*
X82255Y218172D01*
X82271Y218180D01*
X82288Y218186D01*
X82448Y218276D01*
X82609Y218364D01*
X82623Y218375D01*
X82639Y218384D01*
X82778Y218504D01*
X82919Y218621D01*
X82930Y218635D01*
X82943Y218647D01*
X83056Y218792D01*
X83171Y218935D01*
X83179Y218951D01*
X83190Y218965D01*
X83272Y219130D01*
X83357Y219292D01*
X83361Y219309D01*
X83369Y219326D01*
X83417Y219504D01*
X83468Y219679D01*
X83469Y219697D01*
X83474Y219714D01*
X83501Y220045D01*
X83501Y278576D01*
X83498Y278603D01*
X83500Y278630D01*
X83478Y278803D01*
X83461Y278977D01*
X83453Y279002D01*
X83450Y279029D01*
X83394Y279195D01*
X83343Y279362D01*
X83330Y279385D01*
X83322Y279411D01*
X83234Y279562D01*
X83151Y279716D01*
X83134Y279736D01*
X83121Y279760D01*
X82906Y280013D01*
X58051Y304867D01*
X58034Y304882D01*
X58020Y304899D01*
X57878Y305009D01*
X57740Y305123D01*
X57720Y305133D01*
X57703Y305147D01*
X57542Y305228D01*
X57384Y305311D01*
X57363Y305317D01*
X57343Y305328D01*
X57169Y305375D01*
X56998Y305426D01*
X56976Y305428D01*
X56954Y305434D01*
X56776Y305446D01*
X56597Y305462D01*
X56575Y305460D01*
X56553Y305461D01*
X56375Y305438D01*
X56197Y305419D01*
X56176Y305412D01*
X56154Y305409D01*
X55838Y305308D01*
X54900Y304919D01*
X48900Y304919D01*
X43357Y307215D01*
X39115Y311457D01*
X36819Y317000D01*
X36819Y323000D01*
X39115Y328543D01*
X43357Y332785D01*
X48900Y335081D01*
X54900Y335081D01*
X55827Y334697D01*
X55849Y334690D01*
X55868Y334680D01*
X56041Y334632D01*
X56213Y334580D01*
X56235Y334578D01*
X56256Y334572D01*
X56435Y334559D01*
X56613Y334542D01*
X56635Y334544D01*
X56658Y334543D01*
X56836Y334565D01*
X57014Y334584D01*
X57035Y334590D01*
X57057Y334593D01*
X57227Y334650D01*
X57398Y334703D01*
X57418Y334714D01*
X57439Y334721D01*
X57595Y334811D01*
X57751Y334897D01*
X57768Y334911D01*
X57788Y334922D01*
X58041Y335137D01*
X68333Y345429D01*
X70667Y346396D01*
X142901Y346396D01*
X142905Y346396D01*
X144567Y346396D01*
X144568Y346396D01*
X145831Y346396D01*
X147017Y345904D01*
X148165Y345429D01*
X149093Y344500D01*
X149093Y344499D01*
X150211Y343382D01*
X150212Y343381D01*
X150213Y343379D01*
X150232Y343361D01*
X150236Y343356D01*
X158853Y334735D01*
X158870Y334720D01*
X158885Y334703D01*
X159026Y334593D01*
X159164Y334480D01*
X159184Y334469D01*
X159202Y334455D01*
X159362Y334375D01*
X159520Y334291D01*
X159541Y334284D01*
X159562Y334274D01*
X159734Y334227D01*
X159906Y334176D01*
X159928Y334174D01*
X159950Y334168D01*
X160128Y334156D01*
X160307Y334139D01*
X160329Y334142D01*
X160352Y334140D01*
X160529Y334164D01*
X160707Y334183D01*
X160728Y334190D01*
X160751Y334192D01*
X161067Y334294D01*
X162000Y334681D01*
X168000Y334681D01*
X173543Y332385D01*
X177785Y328143D01*
X180081Y322600D01*
X180081Y316600D01*
X177785Y311057D01*
X173543Y306815D01*
X168000Y304519D01*
X162000Y304519D01*
X156457Y306815D01*
X152215Y311057D01*
X149919Y316600D01*
X149919Y322600D01*
X150310Y323542D01*
X150316Y323563D01*
X150326Y323583D01*
X150374Y323755D01*
X150426Y323927D01*
X150428Y323949D01*
X150434Y323970D01*
X150447Y324150D01*
X150464Y324328D01*
X150462Y324350D01*
X150463Y324372D01*
X150441Y324550D01*
X150422Y324729D01*
X150416Y324750D01*
X150413Y324771D01*
X150356Y324942D01*
X150303Y325113D01*
X150292Y325132D01*
X150285Y325153D01*
X150195Y325309D01*
X150109Y325466D01*
X150095Y325483D01*
X150084Y325502D01*
X149870Y325755D01*
X142530Y333099D01*
X142509Y333116D01*
X142491Y333137D01*
X142354Y333243D01*
X142219Y333354D01*
X142195Y333367D01*
X142173Y333383D01*
X142017Y333461D01*
X141863Y333543D01*
X141837Y333551D01*
X141813Y333563D01*
X141643Y333608D01*
X141477Y333658D01*
X141450Y333660D01*
X141424Y333667D01*
X141093Y333694D01*
X140637Y333694D01*
X140628Y333693D01*
X140619Y333694D01*
X140427Y333673D01*
X140236Y333654D01*
X140228Y333652D01*
X140219Y333651D01*
X140037Y333593D01*
X139851Y333536D01*
X139843Y333532D01*
X139835Y333529D01*
X139667Y333436D01*
X139497Y333345D01*
X139491Y333339D01*
X139483Y333334D01*
X139335Y333209D01*
X139188Y333087D01*
X139183Y333080D01*
X139176Y333074D01*
X139056Y332922D01*
X138936Y332773D01*
X138932Y332765D01*
X138926Y332758D01*
X138839Y332586D01*
X138750Y332416D01*
X138748Y332407D01*
X138744Y332399D01*
X138692Y332213D01*
X138639Y332029D01*
X138638Y332020D01*
X138636Y332011D01*
X138622Y331819D01*
X138606Y331628D01*
X138607Y331619D01*
X138606Y331610D01*
X138631Y331417D01*
X138653Y331228D01*
X138656Y331219D01*
X138657Y331210D01*
X138718Y331028D01*
X138778Y330845D01*
X138782Y330837D01*
X138785Y330829D01*
X138880Y330663D01*
X138976Y330494D01*
X138982Y330487D01*
X138986Y330480D01*
X139201Y330227D01*
X140885Y328543D01*
X143181Y323000D01*
X143181Y317000D01*
X140885Y311457D01*
X136643Y307215D01*
X131100Y304919D01*
X125100Y304919D01*
X119557Y307215D01*
X115315Y311457D01*
X113019Y317000D01*
X113019Y323000D01*
X115315Y328543D01*
X116999Y330227D01*
X117005Y330234D01*
X117012Y330239D01*
X117132Y330389D01*
X117254Y330538D01*
X117259Y330546D01*
X117264Y330553D01*
X117353Y330724D01*
X117443Y330894D01*
X117446Y330903D01*
X117450Y330910D01*
X117503Y331095D01*
X117558Y331280D01*
X117559Y331289D01*
X117561Y331297D01*
X117577Y331488D01*
X117594Y331681D01*
X117593Y331690D01*
X117594Y331699D01*
X117572Y331888D01*
X117551Y332081D01*
X117548Y332090D01*
X117547Y332098D01*
X117488Y332280D01*
X117429Y332465D01*
X117425Y332473D01*
X117422Y332481D01*
X117328Y332648D01*
X117235Y332817D01*
X117229Y332824D01*
X117224Y332832D01*
X117099Y332977D01*
X116974Y333124D01*
X116967Y333130D01*
X116961Y333137D01*
X116811Y333253D01*
X116658Y333374D01*
X116650Y333378D01*
X116643Y333383D01*
X116472Y333469D01*
X116299Y333556D01*
X116291Y333559D01*
X116283Y333563D01*
X116097Y333613D01*
X115911Y333664D01*
X115902Y333665D01*
X115894Y333667D01*
X115563Y333694D01*
X75402Y333694D01*
X75376Y333692D01*
X75349Y333694D01*
X75175Y333672D01*
X75002Y333654D01*
X74976Y333647D01*
X74949Y333643D01*
X74784Y333588D01*
X74617Y333536D01*
X74593Y333523D01*
X74568Y333515D01*
X74416Y333428D01*
X74263Y333345D01*
X74242Y333327D01*
X74219Y333314D01*
X73966Y333099D01*
X67028Y326162D01*
X67014Y326144D01*
X66997Y326130D01*
X66887Y325989D01*
X66773Y325850D01*
X66763Y325831D01*
X66749Y325813D01*
X66668Y325652D01*
X66585Y325495D01*
X66578Y325473D01*
X66568Y325453D01*
X66521Y325280D01*
X66470Y325109D01*
X66468Y325086D01*
X66462Y325065D01*
X66450Y324886D01*
X66433Y324708D01*
X66436Y324685D01*
X66434Y324663D01*
X66457Y324486D01*
X66477Y324307D01*
X66483Y324286D01*
X66486Y324264D01*
X66588Y323948D01*
X66981Y323000D01*
X66981Y317000D01*
X66592Y316062D01*
X66586Y316041D01*
X66576Y316021D01*
X66528Y315849D01*
X66476Y315677D01*
X66474Y315655D01*
X66468Y315633D01*
X66455Y315454D01*
X66438Y315276D01*
X66440Y315254D01*
X66438Y315232D01*
X66461Y315054D01*
X66479Y314876D01*
X66486Y314854D01*
X66489Y314832D01*
X66546Y314662D01*
X66599Y314491D01*
X66610Y314472D01*
X66617Y314451D01*
X66706Y314295D01*
X66792Y314138D01*
X66807Y314121D01*
X66818Y314102D01*
X67033Y313849D01*
X93089Y287792D01*
X93114Y287772D01*
X93134Y287749D01*
X93269Y287645D01*
X93329Y287596D01*
X95236Y285689D01*
X96203Y283355D01*
X96203Y220045D01*
X96204Y220027D01*
X96203Y220010D01*
X96224Y219827D01*
X96242Y219644D01*
X96248Y219627D01*
X96250Y219610D01*
X96307Y219435D01*
X96361Y219260D01*
X96369Y219244D01*
X96375Y219227D01*
X96465Y219067D01*
X96552Y218905D01*
X96564Y218892D01*
X96573Y218876D01*
X96693Y218737D01*
X96810Y218596D01*
X96824Y218585D01*
X96836Y218572D01*
X96981Y218459D01*
X97124Y218344D01*
X97140Y218336D01*
X97154Y218325D01*
X97319Y218243D01*
X97481Y218158D01*
X97498Y218153D01*
X97514Y218145D01*
X97692Y218098D01*
X97868Y218047D01*
X97886Y218046D01*
X97903Y218041D01*
X98234Y218014D01*
X128617Y218014D01*
X128634Y218016D01*
X128652Y218014D01*
X128835Y218036D01*
X129017Y218054D01*
X129034Y218059D01*
X129052Y218061D01*
X129227Y218118D01*
X129402Y218172D01*
X129418Y218180D01*
X129435Y218186D01*
X129595Y218276D01*
X129756Y218364D01*
X129770Y218375D01*
X129786Y218384D01*
X129925Y218504D01*
X130066Y218621D01*
X130077Y218635D01*
X130090Y218647D01*
X130203Y218792D01*
X130318Y218935D01*
X130326Y218951D01*
X130337Y218965D01*
X130419Y219129D01*
X130503Y219292D01*
X130508Y219310D01*
X130516Y219326D01*
X130564Y219503D01*
X130615Y219679D01*
X130616Y219697D01*
X130621Y219714D01*
X130648Y220045D01*
X130648Y228047D01*
X130647Y228050D01*
X130648Y229765D01*
X130648Y229766D01*
X130648Y230977D01*
X131162Y232217D01*
X131162Y232218D01*
X131615Y233311D01*
X132554Y234250D01*
X132555Y234251D01*
X133683Y235379D01*
X133685Y235381D01*
X133686Y235382D01*
X133687Y235383D01*
X162734Y264419D01*
X162751Y264440D01*
X162772Y264457D01*
X162878Y264595D01*
X162989Y264730D01*
X163002Y264754D01*
X163018Y264776D01*
X163096Y264932D01*
X163178Y265086D01*
X163186Y265112D01*
X163198Y265136D01*
X163243Y265305D01*
X163293Y265472D01*
X163295Y265499D01*
X163302Y265525D01*
X163329Y265856D01*
X163329Y279901D01*
X163737Y280886D01*
X163741Y280899D01*
X163747Y280910D01*
X163799Y281091D01*
X163854Y281271D01*
X163855Y281284D01*
X163859Y281297D01*
X163874Y281485D01*
X163892Y281672D01*
X163891Y281685D01*
X163892Y281699D01*
X163870Y281885D01*
X163850Y282072D01*
X163846Y282085D01*
X163845Y282098D01*
X163786Y282278D01*
X163730Y282457D01*
X163724Y282468D01*
X163720Y282481D01*
X163627Y282646D01*
X163537Y282810D01*
X163529Y282820D01*
X163522Y282832D01*
X163399Y282974D01*
X163278Y283118D01*
X163268Y283126D01*
X163259Y283137D01*
X163110Y283252D01*
X162963Y283369D01*
X162951Y283375D01*
X162941Y283383D01*
X162772Y283467D01*
X162605Y283553D01*
X162592Y283557D01*
X162580Y283563D01*
X162397Y283612D01*
X162218Y283663D01*
X162204Y283664D01*
X162191Y283667D01*
X161861Y283694D01*
X151602Y283694D01*
X151576Y283692D01*
X151549Y283694D01*
X151375Y283672D01*
X151202Y283654D01*
X151176Y283647D01*
X151149Y283643D01*
X150984Y283588D01*
X150817Y283536D01*
X150793Y283523D01*
X150768Y283515D01*
X150616Y283428D01*
X150463Y283345D01*
X150442Y283327D01*
X150419Y283314D01*
X150166Y283099D01*
X143231Y276164D01*
X143217Y276147D01*
X143200Y276133D01*
X143089Y275991D01*
X142976Y275853D01*
X142965Y275833D01*
X142952Y275816D01*
X142871Y275655D01*
X142787Y275497D01*
X142781Y275476D01*
X142771Y275456D01*
X142723Y275283D01*
X142672Y275111D01*
X142670Y275089D01*
X142665Y275068D01*
X142652Y274889D01*
X142636Y274710D01*
X142638Y274688D01*
X142637Y274666D01*
X142660Y274488D01*
X142679Y274310D01*
X142686Y274289D01*
X142689Y274267D01*
X142791Y273951D01*
X143179Y273013D01*
X143179Y267013D01*
X140883Y261471D01*
X136641Y257228D01*
X131098Y254932D01*
X125099Y254932D01*
X119556Y257228D01*
X115314Y261471D01*
X113018Y267013D01*
X113018Y273013D01*
X115314Y278556D01*
X119556Y282798D01*
X125099Y285094D01*
X131098Y285094D01*
X132036Y284705D01*
X132057Y284699D01*
X132077Y284689D01*
X132250Y284641D01*
X132421Y284589D01*
X132444Y284587D01*
X132465Y284581D01*
X132644Y284568D01*
X132822Y284551D01*
X132844Y284553D01*
X132867Y284551D01*
X133045Y284574D01*
X133223Y284592D01*
X133244Y284599D01*
X133266Y284602D01*
X133436Y284659D01*
X133607Y284712D01*
X133627Y284723D01*
X133648Y284730D01*
X133803Y284820D01*
X133960Y284906D01*
X133977Y284920D01*
X133997Y284931D01*
X134250Y285146D01*
X142461Y293357D01*
X144533Y295429D01*
X146867Y296396D01*
X191115Y296396D01*
X193449Y295429D01*
X204312Y284566D01*
X204333Y284549D01*
X204351Y284528D01*
X204489Y284421D01*
X204624Y284311D01*
X204648Y284298D01*
X204669Y284282D01*
X204825Y284204D01*
X204980Y284122D01*
X205005Y284114D01*
X205029Y284102D01*
X205199Y284057D01*
X205366Y284007D01*
X205392Y284005D01*
X205405Y284001D01*
X210614Y281844D01*
X214544Y277914D01*
X216671Y272779D01*
X216671Y267221D01*
X214544Y262086D01*
X210614Y258156D01*
X205479Y256029D01*
X199921Y256029D01*
X194786Y258156D01*
X193881Y259062D01*
X193871Y259070D01*
X193862Y259080D01*
X193715Y259197D01*
X193569Y259317D01*
X193558Y259323D01*
X193547Y259331D01*
X193380Y259417D01*
X193214Y259505D01*
X193201Y259509D01*
X193189Y259515D01*
X193009Y259566D01*
X192828Y259620D01*
X192814Y259621D01*
X192802Y259625D01*
X192616Y259639D01*
X192427Y259656D01*
X192413Y259655D01*
X192400Y259656D01*
X192215Y259634D01*
X192027Y259613D01*
X192014Y259609D01*
X192000Y259607D01*
X191823Y259549D01*
X191643Y259492D01*
X191631Y259485D01*
X191618Y259481D01*
X191455Y259388D01*
X191290Y259297D01*
X191280Y259288D01*
X191268Y259281D01*
X191127Y259158D01*
X190983Y259036D01*
X190975Y259026D01*
X190965Y259017D01*
X190851Y258868D01*
X190734Y258720D01*
X190728Y258708D01*
X190720Y258698D01*
X190568Y258403D01*
X190497Y258232D01*
X189068Y256803D01*
X187201Y256029D01*
X173148Y256029D01*
X173122Y256027D01*
X173095Y256029D01*
X172922Y256007D01*
X172748Y255989D01*
X172722Y255982D01*
X172696Y255978D01*
X172530Y255923D01*
X172363Y255871D01*
X172339Y255859D01*
X172314Y255850D01*
X172162Y255763D01*
X172009Y255679D01*
X171988Y255663D01*
X171965Y255649D01*
X171712Y255435D01*
X143944Y227677D01*
X143927Y227656D01*
X143907Y227639D01*
X143800Y227500D01*
X143689Y227366D01*
X143677Y227342D01*
X143660Y227320D01*
X143583Y227165D01*
X143501Y227010D01*
X143493Y226984D01*
X143481Y226960D01*
X143436Y226792D01*
X143386Y226624D01*
X143383Y226597D01*
X143376Y226571D01*
X143349Y226240D01*
X143349Y220045D01*
X143351Y220027D01*
X143350Y220010D01*
X143371Y219827D01*
X143389Y219644D01*
X143395Y219627D01*
X143397Y219610D01*
X143454Y219435D01*
X143507Y219259D01*
X143516Y219244D01*
X143521Y219227D01*
X143612Y219066D01*
X143699Y218905D01*
X143711Y218892D01*
X143719Y218876D01*
X143840Y218737D01*
X143957Y218596D01*
X143971Y218585D01*
X143983Y218572D01*
X144128Y218459D01*
X144271Y218344D01*
X144287Y218336D01*
X144301Y218325D01*
X144465Y218243D01*
X144628Y218158D01*
X144645Y218153D01*
X144661Y218145D01*
X144839Y218098D01*
X145015Y218047D01*
X145033Y218046D01*
X145050Y218041D01*
X145381Y218014D01*
X243518Y218014D01*
X243536Y218016D01*
X243554Y218014D01*
X243736Y218036D01*
X243919Y218054D01*
X243936Y218059D01*
X243953Y218061D01*
X244128Y218118D01*
X244304Y218172D01*
X244319Y218180D01*
X244336Y218186D01*
X244496Y218276D01*
X244658Y218364D01*
X244671Y218375D01*
X244687Y218384D01*
X244826Y218504D01*
X244967Y218621D01*
X244978Y218635D01*
X244992Y218647D01*
X245104Y218792D01*
X245219Y218935D01*
X245227Y218951D01*
X245238Y218965D01*
X245320Y219130D01*
X245405Y219292D01*
X245410Y219309D01*
X245418Y219326D01*
X245465Y219504D01*
X245516Y219679D01*
X245518Y219697D01*
X245522Y219714D01*
X245549Y220045D01*
X245549Y254950D01*
X245547Y254972D01*
X245549Y254995D01*
X245527Y255172D01*
X245509Y255351D01*
X245503Y255372D01*
X245500Y255394D01*
X245444Y255564D01*
X245391Y255736D01*
X245381Y255755D01*
X245374Y255776D01*
X245285Y255932D01*
X245199Y256090D01*
X245185Y256107D01*
X245174Y256126D01*
X245057Y256261D01*
X244942Y256399D01*
X244924Y256413D01*
X244910Y256430D01*
X244768Y256539D01*
X244628Y256651D01*
X244608Y256661D01*
X244590Y256675D01*
X244295Y256827D01*
X243357Y257215D01*
X239115Y261457D01*
X236819Y267000D01*
X236819Y273000D01*
X239115Y278543D01*
X241664Y281092D01*
X241676Y281106D01*
X241689Y281117D01*
X241803Y281261D01*
X241919Y281403D01*
X241928Y281419D01*
X241939Y281433D01*
X242023Y281598D01*
X242108Y281759D01*
X242113Y281776D01*
X242121Y281792D01*
X242171Y281969D01*
X242223Y282145D01*
X242224Y282163D01*
X242229Y282180D01*
X242242Y282361D01*
X242259Y282546D01*
X242257Y282564D01*
X242258Y282582D01*
X242236Y282762D01*
X242216Y282946D01*
X242210Y282963D01*
X242208Y282981D01*
X242150Y283154D01*
X242094Y283330D01*
X242085Y283346D01*
X242080Y283363D01*
X241988Y283522D01*
X241899Y283682D01*
X241888Y283696D01*
X241879Y283712D01*
X241664Y283964D01*
X221153Y304469D01*
X221136Y304483D01*
X221122Y304500D01*
X220980Y304610D01*
X220842Y304724D01*
X220822Y304734D01*
X220805Y304748D01*
X220644Y304828D01*
X220486Y304912D01*
X220465Y304919D01*
X220445Y304929D01*
X220272Y304976D01*
X220100Y305027D01*
X220078Y305029D01*
X220057Y305035D01*
X219877Y305047D01*
X219699Y305063D01*
X219677Y305061D01*
X219655Y305062D01*
X219476Y305039D01*
X219299Y305020D01*
X219278Y305013D01*
X219256Y305010D01*
X218940Y304909D01*
X218000Y304519D01*
X212000Y304519D01*
X206457Y306815D01*
X202215Y311057D01*
X199919Y316600D01*
X199919Y322600D01*
X202215Y328143D01*
X206457Y332385D01*
X212000Y334681D01*
X218000Y334681D01*
X223543Y332385D01*
X227785Y328143D01*
X230081Y322600D01*
X230081Y316600D01*
X229693Y315665D01*
X229687Y315643D01*
X229677Y315623D01*
X229629Y315451D01*
X229577Y315279D01*
X229575Y315257D01*
X229569Y315235D01*
X229556Y315057D01*
X229539Y314879D01*
X229541Y314856D01*
X229539Y314834D01*
X229562Y314657D01*
X229580Y314478D01*
X229587Y314456D01*
X229590Y314434D01*
X229646Y314266D01*
X229700Y314094D01*
X229711Y314074D01*
X229718Y314053D01*
X229807Y313898D01*
X229893Y313741D01*
X229908Y313723D01*
X229919Y313704D01*
X230134Y313451D01*
X255209Y288383D01*
X255210Y288383D01*
X256351Y287242D01*
X257282Y286311D01*
X257498Y285791D01*
X258069Y284412D01*
X258082Y284388D01*
X258090Y284363D01*
X258176Y284211D01*
X258259Y284057D01*
X258276Y284036D01*
X258289Y284013D01*
X258404Y283882D01*
X258516Y283746D01*
X258536Y283730D01*
X258554Y283710D01*
X258692Y283603D01*
X258828Y283493D01*
X258852Y283481D01*
X258873Y283464D01*
X259168Y283313D01*
X260443Y282785D01*
X264685Y278543D01*
X266981Y273000D01*
X266981Y267000D01*
X264685Y261457D01*
X260443Y257215D01*
X259505Y256827D01*
X259485Y256816D01*
X259464Y256809D01*
X259308Y256721D01*
X259150Y256637D01*
X259133Y256622D01*
X259113Y256611D01*
X258978Y256494D01*
X258839Y256380D01*
X258825Y256363D01*
X258808Y256348D01*
X258699Y256207D01*
X258586Y256067D01*
X258575Y256048D01*
X258562Y256030D01*
X258482Y255870D01*
X258399Y255711D01*
X258392Y255690D01*
X258382Y255670D01*
X258336Y255496D01*
X258286Y255325D01*
X258284Y255302D01*
X258278Y255281D01*
X258251Y254950D01*
X258251Y220045D01*
X258253Y220027D01*
X258251Y220010D01*
X258272Y219827D01*
X258291Y219644D01*
X258296Y219627D01*
X258298Y219610D01*
X258355Y219435D01*
X258409Y219260D01*
X258417Y219244D01*
X258423Y219227D01*
X258513Y219067D01*
X258601Y218905D01*
X258612Y218892D01*
X258621Y218876D01*
X258741Y218737D01*
X258858Y218596D01*
X258872Y218585D01*
X258884Y218572D01*
X259029Y218459D01*
X259172Y218344D01*
X259188Y218336D01*
X259202Y218325D01*
X259367Y218243D01*
X259529Y218158D01*
X259546Y218153D01*
X259562Y218145D01*
X259741Y218098D01*
X259916Y218047D01*
X259934Y218046D01*
X259951Y218041D01*
X260282Y218014D01*
X364852Y218014D01*
X364870Y218016D01*
X364887Y218014D01*
X365070Y218036D01*
X365252Y218054D01*
X365270Y218059D01*
X365287Y218061D01*
X365462Y218118D01*
X365637Y218172D01*
X365653Y218180D01*
X365670Y218186D01*
X365830Y218276D01*
X365991Y218364D01*
X366005Y218375D01*
X366021Y218384D01*
X366160Y218504D01*
X366301Y218621D01*
X366312Y218635D01*
X366325Y218647D01*
X366438Y218792D01*
X366553Y218935D01*
X366561Y218951D01*
X366572Y218965D01*
X366654Y219130D01*
X366739Y219292D01*
X366743Y219309D01*
X366751Y219326D01*
X366799Y219504D01*
X366850Y219679D01*
X366851Y219697D01*
X366856Y219714D01*
X366883Y220045D01*
X366883Y701618D01*
X366881Y701636D01*
X366883Y701654D01*
X366861Y701836D01*
X366843Y702019D01*
X366838Y702036D01*
X366836Y702053D01*
X366779Y702228D01*
X366725Y702404D01*
X366717Y702419D01*
X366711Y702436D01*
X366621Y702596D01*
X366533Y702758D01*
X366522Y702771D01*
X366513Y702787D01*
X366393Y702926D01*
X366276Y703067D01*
X366262Y703078D01*
X366250Y703092D01*
X366105Y703204D01*
X365962Y703319D01*
X365946Y703327D01*
X365932Y703338D01*
X365767Y703420D01*
X365604Y703505D01*
X365587Y703510D01*
X365571Y703518D01*
X365393Y703565D01*
X365218Y703616D01*
X365200Y703618D01*
X365183Y703622D01*
X364852Y703649D01*
X275214Y703649D01*
X265969Y706126D01*
X257680Y710912D01*
X250912Y717680D01*
X246126Y725969D01*
X243649Y735214D01*
X243649Y750000D01*
X243643Y750066D01*
X243643Y750159D01*
X243500Y751977D01*
X243487Y752049D01*
X243483Y752122D01*
X243444Y752287D01*
X243429Y752373D01*
X243417Y752404D01*
X243407Y752445D01*
X242284Y755902D01*
X242222Y756042D01*
X242168Y756185D01*
X242139Y756232D01*
X242122Y756271D01*
X242072Y756341D01*
X241995Y756468D01*
X239858Y759409D01*
X239757Y759523D01*
X239661Y759642D01*
X239619Y759678D01*
X239591Y759710D01*
X239522Y759761D01*
X239409Y759858D01*
X236468Y761995D01*
X236367Y762055D01*
X236337Y762078D01*
X236299Y762096D01*
X236208Y762156D01*
X236157Y762177D01*
X236121Y762198D01*
X236039Y762226D01*
X236032Y762229D01*
X235976Y762257D01*
X235946Y762265D01*
X235902Y762284D01*
X232445Y763407D01*
X232373Y763422D01*
X232304Y763447D01*
X232137Y763474D01*
X232052Y763493D01*
X232019Y763493D01*
X231977Y763500D01*
X230159Y763643D01*
X230093Y763642D01*
X230000Y763649D01*
X150000Y763649D01*
X149934Y763643D01*
X149841Y763643D01*
X148023Y763500D01*
X147951Y763487D01*
X147878Y763483D01*
X147713Y763444D01*
X147627Y763429D01*
X147596Y763417D01*
X147555Y763407D01*
X144098Y762284D01*
X144023Y762251D01*
X143958Y762231D01*
X143904Y762201D01*
X143815Y762168D01*
X143768Y762139D01*
X143729Y762122D01*
X143659Y762072D01*
X143604Y762039D01*
X143532Y761995D01*
X140591Y759858D01*
X140477Y759757D01*
X140358Y759661D01*
X140322Y759619D01*
X140290Y759591D01*
X140239Y759522D01*
X140142Y759409D01*
X138005Y756468D01*
X137928Y756337D01*
X137844Y756208D01*
X137823Y756157D01*
X137802Y756121D01*
X137774Y756039D01*
X137716Y755902D01*
X136593Y752445D01*
X136578Y752373D01*
X136553Y752304D01*
X136526Y752137D01*
X136507Y752052D01*
X136507Y752019D01*
X136500Y751977D01*
X136357Y750159D01*
X136358Y750093D01*
X136351Y750000D01*
X136351Y735214D01*
X133874Y725969D01*
X129088Y717680D01*
X122320Y710912D01*
X114031Y706126D01*
X104786Y703649D01*
X14852Y703649D01*
X14834Y703647D01*
X14816Y703649D01*
X14634Y703628D01*
X14451Y703609D01*
X14434Y703604D01*
X14416Y703602D01*
X14242Y703545D01*
X14066Y703491D01*
X14051Y703483D01*
X14034Y703477D01*
X13873Y703387D01*
X13712Y703299D01*
X13699Y703288D01*
X13683Y703279D01*
X13544Y703159D01*
X13403Y703042D01*
X13392Y703028D01*
X13378Y703016D01*
X13266Y702871D01*
X13151Y702728D01*
X13142Y702712D01*
X13132Y702698D01*
X13050Y702533D01*
X12965Y702371D01*
X12960Y702354D01*
X12952Y702338D01*
X12904Y702159D01*
X12854Y701984D01*
X12852Y701966D01*
X12848Y701949D01*
X12821Y701618D01*
X12821Y220045D01*
X12822Y220027D01*
X12821Y220010D01*
X12842Y219827D01*
X12861Y219644D01*
X12866Y219627D01*
X12868Y219610D01*
X12925Y219435D01*
X12979Y219260D01*
X12987Y219244D01*
X12993Y219227D01*
X13083Y219067D01*
X13170Y218905D01*
X13182Y218892D01*
X13191Y218876D01*
X13311Y218737D01*
X13428Y218596D01*
X13442Y218585D01*
X13454Y218572D01*
X13599Y218459D01*
X13742Y218344D01*
X13758Y218336D01*
X13772Y218325D01*
X13937Y218243D01*
X14099Y218158D01*
X14116Y218153D01*
X14132Y218145D01*
X14310Y218098D01*
X14486Y218047D01*
X14504Y218046D01*
X14521Y218041D01*
X14852Y218014D01*
X81470Y218014D01*
X81488Y218016D01*
G37*
%LPC*%
G36*
X248900Y304919D02*
X248900Y304919D01*
X243357Y307215D01*
X239115Y311457D01*
X236819Y317000D01*
X236819Y323000D01*
X239115Y328543D01*
X243357Y332785D01*
X244295Y333173D01*
X244315Y333184D01*
X244336Y333191D01*
X244492Y333279D01*
X244650Y333363D01*
X244667Y333378D01*
X244687Y333389D01*
X244822Y333506D01*
X244961Y333620D01*
X244975Y333637D01*
X244992Y333652D01*
X245101Y333793D01*
X245214Y333933D01*
X245225Y333952D01*
X245238Y333970D01*
X245318Y334130D01*
X245401Y334289D01*
X245408Y334310D01*
X245418Y334330D01*
X245464Y334504D01*
X245514Y334675D01*
X245516Y334698D01*
X245522Y334719D01*
X245549Y335050D01*
X245549Y354950D01*
X245547Y354972D01*
X245549Y354995D01*
X245527Y355172D01*
X245509Y355351D01*
X245503Y355372D01*
X245500Y355394D01*
X245444Y355564D01*
X245391Y355736D01*
X245381Y355755D01*
X245374Y355776D01*
X245285Y355932D01*
X245199Y356090D01*
X245185Y356107D01*
X245174Y356126D01*
X245057Y356261D01*
X244942Y356399D01*
X244924Y356413D01*
X244910Y356430D01*
X244768Y356539D01*
X244628Y356651D01*
X244608Y356661D01*
X244590Y356675D01*
X244295Y356827D01*
X243357Y357215D01*
X239115Y361457D01*
X238558Y362803D01*
X238547Y362823D01*
X238540Y362845D01*
X238452Y363000D01*
X238368Y363158D01*
X238353Y363176D01*
X238342Y363195D01*
X238225Y363330D01*
X238111Y363468D01*
X238094Y363483D01*
X238079Y363500D01*
X237937Y363610D01*
X237799Y363722D01*
X237779Y363733D01*
X237761Y363747D01*
X237600Y363826D01*
X237442Y363909D01*
X237420Y363916D01*
X237400Y363926D01*
X237227Y363972D01*
X237056Y364022D01*
X237033Y364024D01*
X237011Y364030D01*
X236680Y364057D01*
X230051Y364055D01*
X230030Y364053D01*
X230008Y364054D01*
X229830Y364033D01*
X229651Y364015D01*
X229630Y364008D01*
X229608Y364006D01*
X229438Y363949D01*
X229266Y363896D01*
X229247Y363886D01*
X229226Y363879D01*
X229070Y363790D01*
X228912Y363705D01*
X228895Y363690D01*
X228876Y363680D01*
X228741Y363562D01*
X228603Y363447D01*
X228589Y363429D01*
X228573Y363415D01*
X228463Y363273D01*
X228351Y363133D01*
X228341Y363113D01*
X228327Y363096D01*
X228176Y362801D01*
X227785Y361857D01*
X223543Y357615D01*
X218000Y355319D01*
X212000Y355319D01*
X206457Y357615D01*
X202215Y361857D01*
X199919Y367400D01*
X199919Y373400D01*
X200310Y374343D01*
X200316Y374364D01*
X200326Y374384D01*
X200375Y374557D01*
X200427Y374729D01*
X200429Y374751D01*
X200435Y374772D01*
X200448Y374951D01*
X200465Y375130D01*
X200462Y375151D01*
X200464Y375173D01*
X200442Y375351D01*
X200423Y375530D01*
X200417Y375551D01*
X200414Y375573D01*
X200357Y375743D01*
X200303Y375914D01*
X200293Y375934D01*
X200286Y375954D01*
X200196Y376110D01*
X200110Y376268D01*
X200096Y376284D01*
X200085Y376303D01*
X199870Y376556D01*
X195327Y381104D01*
X195326Y381104D01*
X194467Y381963D01*
X193980Y383141D01*
X193979Y383142D01*
X193501Y384298D01*
X193501Y385561D01*
X193501Y385562D01*
X193501Y431308D01*
X194468Y433642D01*
X200660Y439835D01*
X200675Y439852D01*
X200692Y439867D01*
X200802Y440008D01*
X200915Y440146D01*
X200926Y440166D01*
X200940Y440184D01*
X201020Y440344D01*
X201104Y440502D01*
X201110Y440523D01*
X201121Y440543D01*
X201168Y440717D01*
X201219Y440888D01*
X201221Y440910D01*
X201227Y440932D01*
X201239Y441110D01*
X201255Y441289D01*
X201253Y441311D01*
X201254Y441333D01*
X201231Y441510D01*
X201212Y441689D01*
X201205Y441711D01*
X201202Y441733D01*
X201101Y442049D01*
X201029Y442221D01*
X201029Y447779D01*
X203156Y452914D01*
X206506Y456264D01*
X206517Y456278D01*
X206531Y456289D01*
X206645Y456433D01*
X206761Y456575D01*
X206770Y456591D01*
X206781Y456605D01*
X206864Y456769D01*
X206950Y456931D01*
X206955Y456948D01*
X206963Y456964D01*
X207012Y457141D01*
X207065Y457317D01*
X207066Y457334D01*
X207067Y457336D01*
X207071Y457352D01*
X207084Y457535D01*
X207101Y457718D01*
X207099Y457734D01*
X207099Y457737D01*
X207099Y457738D01*
X207100Y457753D01*
X207077Y457935D01*
X207058Y458118D01*
X207053Y458132D01*
X207053Y458137D01*
X207052Y458139D01*
X207050Y458153D01*
X206992Y458327D01*
X206936Y458502D01*
X206930Y458514D01*
X206928Y458519D01*
X206925Y458523D01*
X206922Y458534D01*
X206830Y458694D01*
X206741Y458854D01*
X206734Y458863D01*
X206730Y458870D01*
X206726Y458875D01*
X206721Y458883D01*
X206506Y459136D01*
X203156Y462486D01*
X201029Y467621D01*
X201029Y473179D01*
X203156Y478314D01*
X207086Y482244D01*
X212221Y484371D01*
X217779Y484371D01*
X222914Y482244D01*
X226844Y478314D01*
X228971Y473179D01*
X228971Y467621D01*
X228843Y467312D01*
X228836Y467291D01*
X228826Y467271D01*
X228778Y467097D01*
X228726Y466927D01*
X228724Y466904D01*
X228718Y466883D01*
X228705Y466703D01*
X228688Y466526D01*
X228690Y466504D01*
X228689Y466481D01*
X228711Y466303D01*
X228730Y466125D01*
X228736Y466104D01*
X228739Y466082D01*
X228796Y465912D01*
X228850Y465741D01*
X228860Y465721D01*
X228867Y465700D01*
X228957Y465544D01*
X229043Y465388D01*
X229057Y465371D01*
X229068Y465351D01*
X229283Y465098D01*
X237436Y456946D01*
X237456Y456929D01*
X237474Y456908D01*
X237612Y456801D01*
X237747Y456691D01*
X237771Y456678D01*
X237792Y456662D01*
X237949Y456584D01*
X238103Y456502D01*
X238128Y456494D01*
X238152Y456482D01*
X238322Y456437D01*
X238489Y456387D01*
X238515Y456385D01*
X238541Y456378D01*
X238872Y456351D01*
X239318Y456351D01*
X239327Y456352D01*
X239336Y456351D01*
X239528Y456372D01*
X239719Y456391D01*
X239727Y456393D01*
X239736Y456394D01*
X239918Y456452D01*
X240104Y456509D01*
X240112Y456513D01*
X240120Y456516D01*
X240288Y456609D01*
X240458Y456701D01*
X240464Y456706D01*
X240472Y456711D01*
X240620Y456836D01*
X240767Y456958D01*
X240772Y456965D01*
X240779Y456971D01*
X240899Y457123D01*
X241019Y457272D01*
X241023Y457280D01*
X241029Y457287D01*
X241116Y457459D01*
X241205Y457629D01*
X241207Y457638D01*
X241211Y457646D01*
X241263Y457831D01*
X241316Y458016D01*
X241317Y458025D01*
X241319Y458034D01*
X241333Y458226D01*
X241349Y458418D01*
X241348Y458426D01*
X241349Y458435D01*
X241324Y458628D01*
X241302Y458817D01*
X241299Y458826D01*
X241298Y458835D01*
X241237Y459018D01*
X241177Y459200D01*
X241173Y459208D01*
X241170Y459216D01*
X241075Y459382D01*
X240979Y459551D01*
X240973Y459558D01*
X240969Y459565D01*
X240754Y459818D01*
X239115Y461457D01*
X236819Y467000D01*
X236819Y473000D01*
X239115Y478543D01*
X241659Y481087D01*
X241671Y481101D01*
X241684Y481112D01*
X241798Y481256D01*
X241914Y481398D01*
X241923Y481414D01*
X241934Y481428D01*
X242017Y481592D01*
X242103Y481754D01*
X242108Y481771D01*
X242116Y481787D01*
X242166Y481964D01*
X242218Y482140D01*
X242219Y482158D01*
X242224Y482175D01*
X242238Y482358D01*
X242254Y482541D01*
X242252Y482559D01*
X242254Y482576D01*
X242231Y482758D01*
X242211Y482941D01*
X242205Y482958D01*
X242203Y482976D01*
X242145Y483149D01*
X242089Y483325D01*
X242081Y483341D01*
X242075Y483357D01*
X241983Y483517D01*
X241895Y483677D01*
X241883Y483691D01*
X241874Y483706D01*
X241659Y483959D01*
X220302Y505317D01*
X220284Y505331D01*
X220270Y505348D01*
X220129Y505459D01*
X219990Y505572D01*
X219971Y505583D01*
X219953Y505596D01*
X219792Y505677D01*
X219635Y505761D01*
X219613Y505767D01*
X219593Y505777D01*
X219420Y505824D01*
X219249Y505875D01*
X219226Y505878D01*
X219205Y505883D01*
X219027Y505896D01*
X218848Y505912D01*
X218825Y505909D01*
X218803Y505911D01*
X218627Y505888D01*
X218447Y505868D01*
X218426Y505862D01*
X218404Y505859D01*
X218088Y505757D01*
X217779Y505629D01*
X212221Y505629D01*
X207086Y507756D01*
X203156Y511686D01*
X203028Y511995D01*
X203018Y512015D01*
X203011Y512036D01*
X202923Y512192D01*
X202838Y512350D01*
X202824Y512367D01*
X202813Y512387D01*
X202696Y512522D01*
X202582Y512661D01*
X202564Y512675D01*
X202550Y512692D01*
X202408Y512801D01*
X202269Y512914D01*
X202249Y512925D01*
X202232Y512938D01*
X202071Y513018D01*
X201912Y513101D01*
X201891Y513108D01*
X201871Y513118D01*
X201697Y513164D01*
X201526Y513214D01*
X201504Y513216D01*
X201482Y513222D01*
X201152Y513249D01*
X180050Y513249D01*
X180028Y513247D01*
X180005Y513249D01*
X179828Y513227D01*
X179649Y513209D01*
X179628Y513203D01*
X179606Y513200D01*
X179436Y513144D01*
X179264Y513091D01*
X179245Y513081D01*
X179224Y513074D01*
X179068Y512985D01*
X178910Y512899D01*
X178893Y512885D01*
X178874Y512874D01*
X178739Y512757D01*
X178601Y512642D01*
X178587Y512624D01*
X178570Y512610D01*
X178461Y512468D01*
X178349Y512328D01*
X178339Y512308D01*
X178325Y512290D01*
X178173Y511995D01*
X177785Y511057D01*
X173543Y506815D01*
X168000Y504519D01*
X162000Y504519D01*
X156457Y506815D01*
X152215Y511057D01*
X149919Y516600D01*
X149919Y522600D01*
X152215Y528143D01*
X156457Y532385D01*
X162000Y534681D01*
X168000Y534681D01*
X173543Y532385D01*
X177785Y528143D01*
X178173Y527205D01*
X178184Y527185D01*
X178191Y527164D01*
X178279Y527008D01*
X178363Y526850D01*
X178378Y526833D01*
X178389Y526813D01*
X178506Y526678D01*
X178620Y526539D01*
X178637Y526525D01*
X178652Y526508D01*
X178793Y526399D01*
X178933Y526286D01*
X178952Y526275D01*
X178970Y526262D01*
X179130Y526182D01*
X179289Y526099D01*
X179310Y526092D01*
X179330Y526082D01*
X179504Y526036D01*
X179675Y525986D01*
X179698Y525984D01*
X179719Y525978D01*
X180050Y525951D01*
X201152Y525951D01*
X201174Y525953D01*
X201196Y525951D01*
X201373Y525973D01*
X201552Y525991D01*
X201573Y525997D01*
X201596Y526000D01*
X201765Y526056D01*
X201937Y526109D01*
X201957Y526119D01*
X201978Y526126D01*
X202133Y526215D01*
X202291Y526301D01*
X202308Y526315D01*
X202328Y526326D01*
X202463Y526444D01*
X202600Y526558D01*
X202614Y526576D01*
X202631Y526590D01*
X202740Y526732D01*
X202853Y526872D01*
X202863Y526892D01*
X202877Y526910D01*
X203028Y527205D01*
X203156Y527514D01*
X206506Y530864D01*
X206517Y530878D01*
X206531Y530889D01*
X206645Y531033D01*
X206761Y531175D01*
X206770Y531191D01*
X206781Y531205D01*
X206864Y531369D01*
X206950Y531531D01*
X206955Y531548D01*
X206963Y531564D01*
X207012Y531741D01*
X207065Y531917D01*
X207066Y531935D01*
X207071Y531952D01*
X207084Y532135D01*
X207101Y532318D01*
X207099Y532336D01*
X207100Y532353D01*
X207077Y532535D01*
X207058Y532718D01*
X207052Y532735D01*
X207050Y532753D01*
X206992Y532927D01*
X206936Y533102D01*
X206927Y533118D01*
X206922Y533134D01*
X206830Y533294D01*
X206741Y533454D01*
X206730Y533468D01*
X206721Y533483D01*
X206506Y533736D01*
X203156Y537086D01*
X201029Y542221D01*
X201029Y547779D01*
X203156Y552914D01*
X206506Y556264D01*
X206517Y556278D01*
X206531Y556289D01*
X206645Y556433D01*
X206761Y556575D01*
X206770Y556591D01*
X206781Y556605D01*
X206864Y556769D01*
X206950Y556931D01*
X206955Y556948D01*
X206963Y556964D01*
X207012Y557141D01*
X207065Y557317D01*
X207066Y557335D01*
X207071Y557352D01*
X207084Y557535D01*
X207101Y557718D01*
X207099Y557736D01*
X207100Y557753D01*
X207077Y557935D01*
X207058Y558118D01*
X207052Y558135D01*
X207050Y558153D01*
X206992Y558327D01*
X206936Y558502D01*
X206927Y558518D01*
X206922Y558534D01*
X206830Y558694D01*
X206741Y558854D01*
X206730Y558868D01*
X206721Y558883D01*
X206506Y559136D01*
X203156Y562486D01*
X201029Y567621D01*
X201029Y573179D01*
X203156Y578314D01*
X207086Y582244D01*
X207795Y582538D01*
X207815Y582548D01*
X207836Y582555D01*
X207992Y582643D01*
X208150Y582728D01*
X208167Y582742D01*
X208187Y582753D01*
X208322Y582870D01*
X208461Y582984D01*
X208475Y583001D01*
X208492Y583016D01*
X208601Y583157D01*
X208714Y583297D01*
X208725Y583317D01*
X208738Y583334D01*
X208818Y583495D01*
X208901Y583653D01*
X208908Y583675D01*
X208918Y583695D01*
X208964Y583868D01*
X209014Y584040D01*
X209016Y584062D01*
X209022Y584083D01*
X209049Y584414D01*
X209049Y604950D01*
X209047Y604972D01*
X209049Y604995D01*
X209027Y605172D01*
X209009Y605351D01*
X209003Y605372D01*
X209000Y605394D01*
X208944Y605564D01*
X208891Y605736D01*
X208881Y605755D01*
X208874Y605776D01*
X208785Y605932D01*
X208699Y606090D01*
X208685Y606107D01*
X208674Y606126D01*
X208557Y606261D01*
X208442Y606399D01*
X208424Y606413D01*
X208410Y606430D01*
X208268Y606539D01*
X208128Y606651D01*
X208108Y606661D01*
X208090Y606675D01*
X207795Y606827D01*
X206857Y607215D01*
X202615Y611457D01*
X200319Y617000D01*
X200319Y623000D01*
X202615Y628543D01*
X204254Y630182D01*
X204260Y630189D01*
X204267Y630194D01*
X204387Y630344D01*
X204509Y630493D01*
X204514Y630501D01*
X204519Y630508D01*
X204608Y630678D01*
X204698Y630849D01*
X204701Y630858D01*
X204705Y630865D01*
X204758Y631050D01*
X204813Y631235D01*
X204814Y631244D01*
X204816Y631252D01*
X204832Y631443D01*
X204849Y631636D01*
X204848Y631645D01*
X204849Y631654D01*
X204827Y631843D01*
X204806Y632036D01*
X204803Y632045D01*
X204802Y632053D01*
X204743Y632235D01*
X204684Y632420D01*
X204680Y632428D01*
X204677Y632436D01*
X204584Y632601D01*
X204490Y632772D01*
X204484Y632779D01*
X204479Y632787D01*
X204354Y632932D01*
X204229Y633079D01*
X204222Y633085D01*
X204216Y633092D01*
X204066Y633208D01*
X203913Y633329D01*
X203905Y633333D01*
X203898Y633338D01*
X203727Y633424D01*
X203554Y633511D01*
X203546Y633514D01*
X203538Y633518D01*
X203352Y633568D01*
X203166Y633619D01*
X203157Y633620D01*
X203149Y633622D01*
X202818Y633649D01*
X198072Y633649D01*
X198045Y633647D01*
X198019Y633649D01*
X197845Y633627D01*
X197671Y633609D01*
X197646Y633602D01*
X197619Y633598D01*
X197453Y633542D01*
X197286Y633491D01*
X197263Y633478D01*
X197237Y633470D01*
X197086Y633383D01*
X196932Y633299D01*
X196912Y633282D01*
X196889Y633269D01*
X196636Y633054D01*
X191946Y628364D01*
X191929Y628344D01*
X191908Y628326D01*
X191802Y628189D01*
X191691Y628053D01*
X191678Y628029D01*
X191662Y628008D01*
X191584Y627852D01*
X191502Y627697D01*
X191494Y627672D01*
X191482Y627648D01*
X191437Y627479D01*
X191387Y627311D01*
X191385Y627285D01*
X191378Y627259D01*
X191351Y626928D01*
X191351Y589137D01*
X190384Y586803D01*
X180133Y576551D01*
X180118Y576534D01*
X180101Y576520D01*
X179991Y576378D01*
X179877Y576240D01*
X179867Y576220D01*
X179853Y576203D01*
X179773Y576042D01*
X179689Y575884D01*
X179683Y575863D01*
X179672Y575843D01*
X179625Y575670D01*
X179574Y575498D01*
X179572Y575476D01*
X179566Y575454D01*
X179554Y575276D01*
X179538Y575097D01*
X179540Y575075D01*
X179539Y575053D01*
X179562Y574875D01*
X179581Y574697D01*
X179588Y574676D01*
X179591Y574654D01*
X179692Y574338D01*
X180081Y573400D01*
X180081Y567400D01*
X177785Y561857D01*
X173543Y557615D01*
X172605Y557227D01*
X172585Y557216D01*
X172564Y557209D01*
X172408Y557121D01*
X172250Y557037D01*
X172233Y557022D01*
X172213Y557011D01*
X172078Y556894D01*
X171939Y556780D01*
X171925Y556763D01*
X171908Y556748D01*
X171799Y556607D01*
X171686Y556467D01*
X171675Y556448D01*
X171662Y556430D01*
X171582Y556270D01*
X171499Y556111D01*
X171492Y556090D01*
X171482Y556070D01*
X171436Y555896D01*
X171386Y555725D01*
X171385Y555720D01*
X170384Y553303D01*
X168312Y551230D01*
X143233Y526151D01*
X143218Y526134D01*
X143201Y526120D01*
X143091Y525978D01*
X142977Y525840D01*
X142967Y525820D01*
X142953Y525803D01*
X142872Y525642D01*
X142789Y525484D01*
X142783Y525463D01*
X142772Y525443D01*
X142725Y525269D01*
X142674Y525098D01*
X142672Y525076D01*
X142666Y525054D01*
X142654Y524876D01*
X142638Y524697D01*
X142640Y524675D01*
X142639Y524653D01*
X142662Y524475D01*
X142681Y524297D01*
X142688Y524276D01*
X142691Y524254D01*
X142792Y523938D01*
X143181Y523000D01*
X143181Y517000D01*
X140885Y511457D01*
X136643Y507215D01*
X131100Y504919D01*
X125100Y504919D01*
X119557Y507215D01*
X115315Y511457D01*
X113019Y517000D01*
X113019Y523000D01*
X115315Y528543D01*
X119557Y532785D01*
X125100Y535081D01*
X131100Y535081D01*
X132038Y534692D01*
X132059Y534686D01*
X132079Y534676D01*
X132251Y534628D01*
X132423Y534576D01*
X132445Y534574D01*
X132467Y534568D01*
X132646Y534555D01*
X132824Y534538D01*
X132846Y534540D01*
X132868Y534538D01*
X133046Y534561D01*
X133224Y534579D01*
X133246Y534586D01*
X133268Y534589D01*
X133438Y534646D01*
X133609Y534699D01*
X133628Y534710D01*
X133649Y534717D01*
X133805Y534806D01*
X133962Y534892D01*
X133979Y534907D01*
X133998Y534918D01*
X134251Y535133D01*
X155159Y556041D01*
X155171Y556055D01*
X155184Y556066D01*
X155298Y556210D01*
X155414Y556352D01*
X155423Y556368D01*
X155434Y556382D01*
X155517Y556546D01*
X155603Y556708D01*
X155608Y556725D01*
X155616Y556741D01*
X155666Y556918D01*
X155718Y557094D01*
X155719Y557112D01*
X155724Y557129D01*
X155738Y557312D01*
X155754Y557495D01*
X155752Y557512D01*
X155754Y557530D01*
X155731Y557712D01*
X155711Y557895D01*
X155705Y557912D01*
X155703Y557930D01*
X155645Y558104D01*
X155589Y558279D01*
X155581Y558295D01*
X155575Y558311D01*
X155483Y558471D01*
X155395Y558631D01*
X155383Y558645D01*
X155374Y558660D01*
X155159Y558913D01*
X152215Y561857D01*
X149919Y567400D01*
X149919Y573400D01*
X152215Y578943D01*
X156457Y583185D01*
X162000Y585481D01*
X168000Y585481D01*
X168938Y585092D01*
X168959Y585086D01*
X168979Y585076D01*
X169151Y585028D01*
X169323Y584976D01*
X169345Y584974D01*
X169367Y584968D01*
X169546Y584955D01*
X169724Y584938D01*
X169746Y584940D01*
X169768Y584938D01*
X169947Y584961D01*
X170124Y584979D01*
X170146Y584986D01*
X170168Y584989D01*
X170338Y585046D01*
X170509Y585099D01*
X170528Y585110D01*
X170549Y585117D01*
X170705Y585206D01*
X170862Y585292D01*
X170879Y585307D01*
X170898Y585318D01*
X171151Y585533D01*
X178054Y592436D01*
X178071Y592456D01*
X178092Y592474D01*
X178199Y592612D01*
X178309Y592747D01*
X178322Y592771D01*
X178338Y592792D01*
X178416Y592949D01*
X178498Y593103D01*
X178506Y593128D01*
X178518Y593152D01*
X178563Y593322D01*
X178613Y593489D01*
X178615Y593515D01*
X178622Y593541D01*
X178649Y593872D01*
X178649Y607818D01*
X178648Y607827D01*
X178649Y607836D01*
X178628Y608028D01*
X178609Y608219D01*
X178607Y608227D01*
X178606Y608236D01*
X178548Y608418D01*
X178491Y608604D01*
X178487Y608612D01*
X178484Y608620D01*
X178391Y608788D01*
X178299Y608958D01*
X178294Y608964D01*
X178289Y608972D01*
X178164Y609120D01*
X178042Y609267D01*
X178035Y609272D01*
X178029Y609279D01*
X177877Y609399D01*
X177728Y609519D01*
X177720Y609523D01*
X177713Y609529D01*
X177540Y609617D01*
X177371Y609705D01*
X177362Y609707D01*
X177354Y609711D01*
X177168Y609763D01*
X176984Y609816D01*
X176975Y609817D01*
X176966Y609819D01*
X176774Y609833D01*
X176582Y609849D01*
X176574Y609848D01*
X176565Y609849D01*
X176372Y609824D01*
X176183Y609802D01*
X176174Y609799D01*
X176165Y609798D01*
X175982Y609737D01*
X175800Y609677D01*
X175792Y609673D01*
X175784Y609670D01*
X175618Y609575D01*
X175449Y609479D01*
X175442Y609473D01*
X175435Y609469D01*
X175182Y609254D01*
X173143Y607215D01*
X167600Y604919D01*
X161600Y604919D01*
X156057Y607215D01*
X151815Y611457D01*
X151427Y612395D01*
X151416Y612415D01*
X151409Y612436D01*
X151321Y612592D01*
X151237Y612750D01*
X151222Y612767D01*
X151211Y612787D01*
X151094Y612922D01*
X150980Y613061D01*
X150963Y613075D01*
X150948Y613092D01*
X150807Y613201D01*
X150667Y613314D01*
X150648Y613325D01*
X150630Y613338D01*
X150470Y613418D01*
X150311Y613501D01*
X150290Y613508D01*
X150270Y613518D01*
X150096Y613564D01*
X149925Y613614D01*
X149902Y613616D01*
X149881Y613622D01*
X149550Y613649D01*
X141948Y613649D01*
X141926Y613647D01*
X141904Y613649D01*
X141727Y613627D01*
X141548Y613609D01*
X141527Y613603D01*
X141504Y613600D01*
X141335Y613544D01*
X141163Y613491D01*
X141143Y613481D01*
X141122Y613474D01*
X140967Y613385D01*
X140809Y613299D01*
X140792Y613285D01*
X140772Y613274D01*
X140637Y613156D01*
X140500Y613042D01*
X140486Y613024D01*
X140469Y613010D01*
X140360Y612868D01*
X140247Y612728D01*
X140237Y612708D01*
X140223Y612690D01*
X140072Y612395D01*
X139944Y612086D01*
X136014Y608156D01*
X135705Y608028D01*
X135685Y608018D01*
X135664Y608011D01*
X135508Y607923D01*
X135350Y607838D01*
X135333Y607824D01*
X135313Y607813D01*
X135178Y607696D01*
X135039Y607582D01*
X135025Y607564D01*
X135008Y607550D01*
X134899Y607408D01*
X134786Y607269D01*
X134775Y607249D01*
X134762Y607232D01*
X134682Y607071D01*
X134599Y606912D01*
X134592Y606891D01*
X134582Y606871D01*
X134536Y606697D01*
X134486Y606526D01*
X134484Y606504D01*
X134478Y606482D01*
X134451Y606152D01*
X134451Y585050D01*
X134453Y585028D01*
X134451Y585005D01*
X134473Y584828D01*
X134491Y584649D01*
X134497Y584628D01*
X134500Y584606D01*
X134556Y584436D01*
X134609Y584264D01*
X134619Y584245D01*
X134626Y584224D01*
X134715Y584068D01*
X134801Y583910D01*
X134815Y583893D01*
X134826Y583874D01*
X134943Y583739D01*
X135058Y583601D01*
X135076Y583587D01*
X135090Y583570D01*
X135232Y583461D01*
X135372Y583349D01*
X135392Y583339D01*
X135410Y583325D01*
X135705Y583173D01*
X136643Y582785D01*
X140885Y578543D01*
X143181Y573000D01*
X143181Y567000D01*
X140885Y561457D01*
X136643Y557215D01*
X131100Y554919D01*
X125100Y554919D01*
X119557Y557215D01*
X115315Y561457D01*
X113019Y567000D01*
X113019Y573000D01*
X115315Y578543D01*
X119557Y582785D01*
X120495Y583173D01*
X120515Y583184D01*
X120536Y583191D01*
X120692Y583279D01*
X120850Y583363D01*
X120867Y583378D01*
X120887Y583389D01*
X121022Y583506D01*
X121161Y583620D01*
X121175Y583637D01*
X121192Y583652D01*
X121301Y583793D01*
X121414Y583933D01*
X121425Y583952D01*
X121438Y583970D01*
X121518Y584130D01*
X121601Y584289D01*
X121608Y584310D01*
X121618Y584330D01*
X121664Y584504D01*
X121714Y584675D01*
X121716Y584698D01*
X121722Y584719D01*
X121749Y585050D01*
X121749Y606152D01*
X121747Y606174D01*
X121749Y606196D01*
X121727Y606373D01*
X121709Y606552D01*
X121703Y606573D01*
X121700Y606596D01*
X121644Y606765D01*
X121591Y606937D01*
X121581Y606957D01*
X121574Y606978D01*
X121485Y607133D01*
X121399Y607291D01*
X121385Y607308D01*
X121374Y607328D01*
X121256Y607463D01*
X121142Y607600D01*
X121124Y607614D01*
X121110Y607631D01*
X120968Y607740D01*
X120828Y607853D01*
X120808Y607863D01*
X120790Y607877D01*
X120495Y608028D01*
X120186Y608156D01*
X116256Y612086D01*
X114129Y617221D01*
X114129Y622779D01*
X116256Y627914D01*
X120186Y631844D01*
X125321Y633971D01*
X130879Y633971D01*
X136014Y631844D01*
X139944Y627914D01*
X140072Y627605D01*
X140082Y627585D01*
X140089Y627564D01*
X140177Y627408D01*
X140262Y627250D01*
X140276Y627233D01*
X140287Y627213D01*
X140404Y627078D01*
X140518Y626939D01*
X140536Y626925D01*
X140550Y626908D01*
X140692Y626799D01*
X140831Y626686D01*
X140851Y626675D01*
X140868Y626662D01*
X141029Y626582D01*
X141188Y626499D01*
X141209Y626492D01*
X141229Y626482D01*
X141403Y626436D01*
X141574Y626386D01*
X141596Y626384D01*
X141618Y626378D01*
X141948Y626351D01*
X149550Y626351D01*
X149572Y626353D01*
X149595Y626351D01*
X149772Y626373D01*
X149951Y626391D01*
X149972Y626397D01*
X149994Y626400D01*
X150164Y626456D01*
X150336Y626509D01*
X150355Y626519D01*
X150376Y626526D01*
X150532Y626615D01*
X150690Y626701D01*
X150707Y626715D01*
X150726Y626726D01*
X150861Y626843D01*
X150999Y626958D01*
X151013Y626976D01*
X151030Y626990D01*
X151139Y627132D01*
X151251Y627272D01*
X151261Y627292D01*
X151275Y627310D01*
X151427Y627605D01*
X151815Y628543D01*
X156057Y632785D01*
X161600Y635081D01*
X167600Y635081D01*
X173143Y632785D01*
X175215Y630712D01*
X175226Y630704D01*
X175234Y630693D01*
X175381Y630576D01*
X175527Y630457D01*
X175539Y630451D01*
X175549Y630442D01*
X175716Y630356D01*
X175882Y630268D01*
X175895Y630265D01*
X175907Y630258D01*
X176087Y630207D01*
X176268Y630154D01*
X176282Y630152D01*
X176295Y630149D01*
X176480Y630134D01*
X176669Y630117D01*
X176683Y630119D01*
X176696Y630118D01*
X176881Y630140D01*
X177070Y630161D01*
X177083Y630165D01*
X177096Y630166D01*
X177273Y630225D01*
X177453Y630282D01*
X177465Y630289D01*
X177478Y630293D01*
X177642Y630386D01*
X177806Y630477D01*
X177816Y630486D01*
X177828Y630492D01*
X177970Y630616D01*
X178113Y630737D01*
X178121Y630748D01*
X178131Y630757D01*
X178246Y630906D01*
X178362Y631053D01*
X178368Y631065D01*
X178377Y631076D01*
X178528Y631371D01*
X179616Y633997D01*
X181688Y636070D01*
X185800Y640182D01*
X185806Y640189D01*
X185813Y640194D01*
X185933Y640344D01*
X186056Y640493D01*
X186060Y640501D01*
X186065Y640508D01*
X186154Y640678D01*
X186244Y640849D01*
X186247Y640858D01*
X186251Y640865D01*
X186304Y641050D01*
X186359Y641235D01*
X186360Y641244D01*
X186362Y641252D01*
X186378Y641444D01*
X186395Y641636D01*
X186394Y641645D01*
X186395Y641654D01*
X186373Y641843D01*
X186352Y642036D01*
X186349Y642045D01*
X186348Y642053D01*
X186289Y642234D01*
X186230Y642420D01*
X186226Y642428D01*
X186223Y642436D01*
X186128Y642605D01*
X186036Y642772D01*
X186030Y642779D01*
X186025Y642787D01*
X185899Y642933D01*
X185775Y643079D01*
X185768Y643085D01*
X185762Y643092D01*
X185611Y643209D01*
X185459Y643329D01*
X185451Y643333D01*
X185444Y643338D01*
X185272Y643424D01*
X185100Y643511D01*
X185092Y643514D01*
X185084Y643518D01*
X184898Y643568D01*
X184712Y643619D01*
X184703Y643620D01*
X184695Y643622D01*
X184364Y643649D01*
X85372Y643649D01*
X85345Y643647D01*
X85319Y643649D01*
X85145Y643627D01*
X84971Y643609D01*
X84946Y643602D01*
X84919Y643598D01*
X84754Y643543D01*
X84586Y643491D01*
X84563Y643478D01*
X84537Y643470D01*
X84386Y643383D01*
X84232Y643299D01*
X84212Y643282D01*
X84189Y643269D01*
X83936Y643054D01*
X66466Y625584D01*
X66449Y625564D01*
X66428Y625546D01*
X66321Y625408D01*
X66211Y625273D01*
X66198Y625249D01*
X66182Y625228D01*
X66104Y625071D01*
X66022Y624917D01*
X66014Y624892D01*
X66002Y624868D01*
X65957Y624698D01*
X65907Y624531D01*
X65905Y624505D01*
X65898Y624479D01*
X65871Y624148D01*
X65871Y615852D01*
X65873Y615825D01*
X65871Y615799D01*
X65893Y615625D01*
X65911Y615451D01*
X65918Y615426D01*
X65922Y615399D01*
X65977Y615233D01*
X66029Y615066D01*
X66042Y615043D01*
X66050Y615017D01*
X66137Y614866D01*
X66221Y614712D01*
X66238Y614692D01*
X66251Y614669D01*
X66466Y614416D01*
X93312Y587570D01*
X95384Y585497D01*
X96351Y583163D01*
X96351Y523472D01*
X96353Y523445D01*
X96351Y523419D01*
X96373Y523245D01*
X96391Y523071D01*
X96398Y523046D01*
X96402Y523019D01*
X96457Y522854D01*
X96509Y522686D01*
X96522Y522663D01*
X96530Y522637D01*
X96617Y522486D01*
X96701Y522332D01*
X96718Y522312D01*
X96731Y522289D01*
X96946Y522036D01*
X122036Y496946D01*
X122056Y496929D01*
X122074Y496908D01*
X122212Y496801D01*
X122347Y496691D01*
X122371Y496678D01*
X122392Y496662D01*
X122549Y496584D01*
X122703Y496502D01*
X122728Y496494D01*
X122752Y496482D01*
X122922Y496437D01*
X123089Y496387D01*
X123115Y496385D01*
X123141Y496378D01*
X123472Y496351D01*
X141263Y496351D01*
X143597Y495384D01*
X155384Y483597D01*
X156345Y481278D01*
X156351Y481267D01*
X156353Y481258D01*
X156390Y481194D01*
X156391Y481192D01*
X156428Y481101D01*
X156486Y481014D01*
X156535Y480923D01*
X156597Y480848D01*
X156651Y480766D01*
X156725Y480693D01*
X156791Y480612D01*
X156867Y480551D01*
X156936Y480482D01*
X157023Y480424D01*
X157104Y480359D01*
X157190Y480313D01*
X157272Y480259D01*
X157368Y480220D01*
X157461Y480172D01*
X157554Y480144D01*
X157645Y480107D01*
X157747Y480088D01*
X157847Y480058D01*
X157944Y480050D01*
X158040Y480032D01*
X158144Y480033D01*
X158248Y480024D01*
X158345Y480035D01*
X158443Y480036D01*
X158545Y480057D01*
X158648Y480069D01*
X158741Y480099D01*
X158837Y480119D01*
X158954Y480167D01*
X159031Y480192D01*
X159078Y480218D01*
X159144Y480245D01*
X160612Y480993D01*
X162323Y481549D01*
X162461Y481571D01*
X162461Y470908D01*
X162462Y470890D01*
X162461Y470873D01*
X162482Y470690D01*
X162501Y470508D01*
X162506Y470491D01*
X162508Y470473D01*
X162565Y470298D01*
X162619Y470123D01*
X162627Y470107D01*
X162633Y470090D01*
X162723Y469930D01*
X162810Y469769D01*
X162822Y469755D01*
X162831Y469739D01*
X162951Y469600D01*
X163068Y469459D01*
X163082Y469448D01*
X163094Y469435D01*
X163239Y469322D01*
X163382Y469207D01*
X163398Y469199D01*
X163412Y469188D01*
X163577Y469106D01*
X163653Y469066D01*
X163740Y468913D01*
X163827Y468752D01*
X163838Y468739D01*
X163847Y468723D01*
X163967Y468584D01*
X164085Y468443D01*
X164098Y468432D01*
X164110Y468418D01*
X164255Y468306D01*
X164398Y468191D01*
X164414Y468183D01*
X164428Y468172D01*
X164593Y468090D01*
X164756Y468005D01*
X164773Y468000D01*
X164789Y467992D01*
X164967Y467944D01*
X165142Y467894D01*
X165160Y467892D01*
X165177Y467888D01*
X165508Y467861D01*
X176171Y467861D01*
X176149Y467723D01*
X175593Y466012D01*
X174776Y464409D01*
X173719Y462953D01*
X172447Y461681D01*
X171310Y460855D01*
X171181Y460741D01*
X171049Y460629D01*
X171031Y460607D01*
X171009Y460588D01*
X170906Y460450D01*
X170798Y460315D01*
X170785Y460289D01*
X170768Y460266D01*
X170693Y460111D01*
X170614Y459956D01*
X170606Y459929D01*
X170594Y459903D01*
X170551Y459735D01*
X170504Y459569D01*
X170502Y459540D01*
X170495Y459512D01*
X170487Y459339D01*
X170473Y459168D01*
X170477Y459139D01*
X170475Y459110D01*
X170501Y458938D01*
X170522Y458768D01*
X170531Y458741D01*
X170535Y458712D01*
X170594Y458549D01*
X170649Y458386D01*
X170663Y458361D01*
X170673Y458334D01*
X170763Y458186D01*
X170848Y458036D01*
X170867Y458014D01*
X170882Y457990D01*
X170999Y457862D01*
X171112Y457732D01*
X171135Y457715D01*
X171155Y457694D01*
X171295Y457592D01*
X171432Y457487D01*
X171460Y457472D01*
X171481Y457457D01*
X171558Y457422D01*
X171727Y457335D01*
X172914Y456844D01*
X176844Y452914D01*
X178971Y447779D01*
X178971Y442221D01*
X176844Y437086D01*
X173494Y433736D01*
X173483Y433723D01*
X173469Y433711D01*
X173355Y433567D01*
X173239Y433425D01*
X173230Y433409D01*
X173219Y433395D01*
X173136Y433231D01*
X173050Y433069D01*
X173045Y433052D01*
X173037Y433036D01*
X172988Y432859D01*
X172935Y432683D01*
X172934Y432665D01*
X172929Y432648D01*
X172916Y432464D01*
X172899Y432282D01*
X172901Y432264D01*
X172900Y432247D01*
X172923Y432065D01*
X172942Y431882D01*
X172948Y431865D01*
X172950Y431847D01*
X173008Y431674D01*
X173064Y431498D01*
X173073Y431482D01*
X173078Y431466D01*
X173170Y431306D01*
X173259Y431146D01*
X173270Y431132D01*
X173279Y431117D01*
X173494Y430864D01*
X176844Y427514D01*
X178971Y422379D01*
X178971Y416821D01*
X176844Y411686D01*
X172914Y407756D01*
X172605Y407628D01*
X172585Y407618D01*
X172564Y407611D01*
X172408Y407523D01*
X172250Y407438D01*
X172233Y407424D01*
X172213Y407413D01*
X172078Y407296D01*
X171939Y407182D01*
X171925Y407164D01*
X171908Y407150D01*
X171799Y407008D01*
X171686Y406869D01*
X171675Y406849D01*
X171662Y406832D01*
X171582Y406671D01*
X171499Y406512D01*
X171492Y406491D01*
X171482Y406471D01*
X171436Y406297D01*
X171386Y406126D01*
X171384Y406104D01*
X171378Y406082D01*
X171351Y405752D01*
X171351Y385450D01*
X171353Y385428D01*
X171351Y385405D01*
X171373Y385228D01*
X171391Y385049D01*
X171397Y385028D01*
X171400Y385006D01*
X171456Y384836D01*
X171509Y384664D01*
X171519Y384645D01*
X171526Y384624D01*
X171615Y384468D01*
X171701Y384310D01*
X171715Y384293D01*
X171726Y384274D01*
X171843Y384139D01*
X171958Y384001D01*
X171976Y383987D01*
X171990Y383970D01*
X172132Y383861D01*
X172272Y383749D01*
X172292Y383739D01*
X172310Y383725D01*
X172605Y383573D01*
X173543Y383185D01*
X177785Y378943D01*
X180081Y373400D01*
X180081Y367400D01*
X177785Y361857D01*
X173543Y357615D01*
X168000Y355319D01*
X162000Y355319D01*
X156457Y357615D01*
X152215Y361857D01*
X151827Y362795D01*
X151816Y362815D01*
X151809Y362836D01*
X151721Y362992D01*
X151637Y363150D01*
X151622Y363167D01*
X151611Y363187D01*
X151494Y363322D01*
X151380Y363461D01*
X151363Y363475D01*
X151348Y363492D01*
X151207Y363601D01*
X151067Y363714D01*
X151048Y363725D01*
X151030Y363738D01*
X150870Y363818D01*
X150711Y363901D01*
X150690Y363908D01*
X150670Y363918D01*
X150496Y363964D01*
X150325Y364014D01*
X150302Y364016D01*
X150281Y364022D01*
X149950Y364049D01*
X143316Y364049D01*
X143293Y364047D01*
X143271Y364049D01*
X143094Y364027D01*
X142915Y364009D01*
X142894Y364003D01*
X142871Y364000D01*
X142702Y363944D01*
X142530Y363891D01*
X142510Y363881D01*
X142489Y363874D01*
X142333Y363785D01*
X142176Y363699D01*
X142159Y363685D01*
X142140Y363674D01*
X142004Y363556D01*
X141867Y363442D01*
X141853Y363424D01*
X141836Y363410D01*
X141727Y363268D01*
X141614Y363128D01*
X141604Y363108D01*
X141591Y363090D01*
X141439Y362795D01*
X140885Y361457D01*
X136643Y357215D01*
X131100Y354919D01*
X125100Y354919D01*
X119557Y357215D01*
X115315Y361457D01*
X113019Y367000D01*
X113019Y373000D01*
X115315Y378543D01*
X119557Y382785D01*
X125100Y385081D01*
X131100Y385081D01*
X136643Y382785D01*
X140885Y378543D01*
X141108Y378005D01*
X141118Y377985D01*
X141125Y377964D01*
X141213Y377808D01*
X141298Y377650D01*
X141312Y377633D01*
X141323Y377613D01*
X141440Y377477D01*
X141554Y377339D01*
X141572Y377325D01*
X141586Y377308D01*
X141727Y377199D01*
X141867Y377086D01*
X141887Y377075D01*
X141904Y377062D01*
X142064Y376982D01*
X142223Y376899D01*
X142245Y376892D01*
X142265Y376882D01*
X142438Y376836D01*
X142610Y376786D01*
X142632Y376784D01*
X142654Y376778D01*
X142984Y376751D01*
X149950Y376751D01*
X149972Y376753D01*
X149995Y376751D01*
X150172Y376773D01*
X150351Y376791D01*
X150372Y376797D01*
X150394Y376800D01*
X150564Y376856D01*
X150736Y376909D01*
X150755Y376919D01*
X150776Y376926D01*
X150932Y377015D01*
X151090Y377101D01*
X151107Y377115D01*
X151126Y377126D01*
X151261Y377243D01*
X151399Y377358D01*
X151413Y377376D01*
X151430Y377390D01*
X151539Y377532D01*
X151651Y377672D01*
X151661Y377692D01*
X151675Y377710D01*
X151827Y378005D01*
X152215Y378943D01*
X156457Y383185D01*
X157395Y383573D01*
X157415Y383584D01*
X157436Y383591D01*
X157592Y383679D01*
X157750Y383763D01*
X157767Y383778D01*
X157787Y383789D01*
X157922Y383906D01*
X158061Y384020D01*
X158075Y384037D01*
X158092Y384052D01*
X158201Y384193D01*
X158314Y384333D01*
X158325Y384352D01*
X158338Y384370D01*
X158418Y384530D01*
X158501Y384689D01*
X158508Y384710D01*
X158518Y384730D01*
X158564Y384904D01*
X158614Y385075D01*
X158616Y385098D01*
X158622Y385119D01*
X158649Y385450D01*
X158649Y405752D01*
X158647Y405774D01*
X158649Y405796D01*
X158627Y405973D01*
X158609Y406152D01*
X158603Y406173D01*
X158600Y406196D01*
X158544Y406365D01*
X158491Y406537D01*
X158481Y406557D01*
X158474Y406578D01*
X158385Y406733D01*
X158299Y406891D01*
X158285Y406908D01*
X158274Y406928D01*
X158156Y407063D01*
X158042Y407200D01*
X158024Y407214D01*
X158010Y407231D01*
X157868Y407340D01*
X157728Y407453D01*
X157708Y407463D01*
X157690Y407477D01*
X157395Y407628D01*
X157086Y407756D01*
X153156Y411686D01*
X151029Y416821D01*
X151029Y422379D01*
X153156Y427514D01*
X156506Y430864D01*
X156517Y430878D01*
X156531Y430889D01*
X156645Y431033D01*
X156761Y431175D01*
X156770Y431191D01*
X156781Y431205D01*
X156864Y431369D01*
X156950Y431531D01*
X156955Y431548D01*
X156963Y431564D01*
X157012Y431741D01*
X157065Y431917D01*
X157066Y431935D01*
X157071Y431952D01*
X157084Y432135D01*
X157101Y432318D01*
X157099Y432336D01*
X157100Y432353D01*
X157077Y432535D01*
X157058Y432718D01*
X157052Y432735D01*
X157050Y432753D01*
X156992Y432927D01*
X156936Y433102D01*
X156927Y433118D01*
X156922Y433134D01*
X156830Y433294D01*
X156741Y433454D01*
X156730Y433468D01*
X156721Y433483D01*
X156506Y433736D01*
X153156Y437086D01*
X151029Y442221D01*
X151029Y447779D01*
X151157Y448088D01*
X151164Y448109D01*
X151174Y448129D01*
X151222Y448303D01*
X151274Y448473D01*
X151276Y448496D01*
X151282Y448517D01*
X151295Y448697D01*
X151312Y448874D01*
X151310Y448896D01*
X151311Y448919D01*
X151289Y449097D01*
X151270Y449275D01*
X151264Y449296D01*
X151261Y449318D01*
X151204Y449488D01*
X151150Y449659D01*
X151140Y449679D01*
X151133Y449700D01*
X151043Y449856D01*
X150957Y450012D01*
X150943Y450029D01*
X150932Y450049D01*
X150717Y450302D01*
X146688Y454330D01*
X144616Y456403D01*
X143649Y458737D01*
X143649Y459318D01*
X143648Y459327D01*
X143649Y459336D01*
X143628Y459528D01*
X143609Y459719D01*
X143607Y459727D01*
X143606Y459736D01*
X143548Y459918D01*
X143491Y460104D01*
X143487Y460112D01*
X143484Y460120D01*
X143391Y460288D01*
X143299Y460458D01*
X143294Y460464D01*
X143289Y460472D01*
X143165Y460619D01*
X143042Y460767D01*
X143035Y460772D01*
X143029Y460779D01*
X142878Y460898D01*
X142728Y461019D01*
X142720Y461023D01*
X142713Y461029D01*
X142540Y461117D01*
X142371Y461205D01*
X142362Y461207D01*
X142354Y461211D01*
X142168Y461263D01*
X141984Y461316D01*
X141975Y461317D01*
X141966Y461319D01*
X141773Y461333D01*
X141582Y461349D01*
X141574Y461348D01*
X141565Y461349D01*
X141372Y461324D01*
X141183Y461302D01*
X141174Y461299D01*
X141165Y461298D01*
X140982Y461237D01*
X140800Y461177D01*
X140792Y461173D01*
X140784Y461170D01*
X140617Y461074D01*
X140449Y460979D01*
X140442Y460974D01*
X140435Y460969D01*
X140182Y460754D01*
X136643Y457215D01*
X135705Y456827D01*
X135685Y456816D01*
X135664Y456809D01*
X135508Y456721D01*
X135350Y456637D01*
X135333Y456622D01*
X135313Y456611D01*
X135178Y456494D01*
X135039Y456380D01*
X135025Y456363D01*
X135008Y456348D01*
X134899Y456207D01*
X134786Y456067D01*
X134775Y456048D01*
X134762Y456030D01*
X134682Y455870D01*
X134599Y455711D01*
X134592Y455690D01*
X134582Y455670D01*
X134536Y455496D01*
X134486Y455325D01*
X134484Y455302D01*
X134478Y455281D01*
X134451Y454950D01*
X134451Y435050D01*
X134453Y435028D01*
X134451Y435005D01*
X134473Y434828D01*
X134491Y434649D01*
X134497Y434628D01*
X134500Y434606D01*
X134556Y434436D01*
X134609Y434264D01*
X134619Y434245D01*
X134626Y434224D01*
X134715Y434068D01*
X134801Y433910D01*
X134815Y433893D01*
X134826Y433874D01*
X134943Y433739D01*
X135058Y433601D01*
X135076Y433587D01*
X135090Y433570D01*
X135232Y433461D01*
X135372Y433349D01*
X135392Y433339D01*
X135410Y433325D01*
X135705Y433173D01*
X136643Y432785D01*
X140885Y428543D01*
X143181Y423000D01*
X143181Y417000D01*
X140885Y411457D01*
X136643Y407215D01*
X131100Y404919D01*
X125100Y404919D01*
X119557Y407215D01*
X115315Y411457D01*
X113019Y417000D01*
X113019Y423000D01*
X115315Y428543D01*
X119557Y432785D01*
X120495Y433173D01*
X120515Y433184D01*
X120536Y433191D01*
X120692Y433279D01*
X120850Y433363D01*
X120867Y433378D01*
X120887Y433389D01*
X121022Y433506D01*
X121161Y433620D01*
X121175Y433637D01*
X121192Y433652D01*
X121301Y433793D01*
X121414Y433933D01*
X121425Y433952D01*
X121438Y433970D01*
X121518Y434130D01*
X121601Y434289D01*
X121608Y434310D01*
X121618Y434330D01*
X121664Y434504D01*
X121714Y434675D01*
X121716Y434698D01*
X121722Y434719D01*
X121749Y435050D01*
X121749Y454950D01*
X121747Y454972D01*
X121749Y454995D01*
X121727Y455172D01*
X121709Y455351D01*
X121703Y455372D01*
X121700Y455394D01*
X121644Y455564D01*
X121591Y455736D01*
X121581Y455755D01*
X121574Y455776D01*
X121485Y455932D01*
X121399Y456090D01*
X121385Y456107D01*
X121374Y456126D01*
X121257Y456261D01*
X121142Y456399D01*
X121124Y456413D01*
X121110Y456430D01*
X120968Y456539D01*
X120828Y456651D01*
X120808Y456661D01*
X120790Y456675D01*
X120495Y456827D01*
X119557Y457215D01*
X115315Y461457D01*
X114927Y462395D01*
X114916Y462415D01*
X114909Y462436D01*
X114821Y462592D01*
X114737Y462750D01*
X114722Y462767D01*
X114711Y462787D01*
X114594Y462922D01*
X114480Y463061D01*
X114463Y463075D01*
X114448Y463092D01*
X114307Y463201D01*
X114167Y463314D01*
X114148Y463325D01*
X114130Y463338D01*
X113970Y463418D01*
X113811Y463501D01*
X113790Y463508D01*
X113770Y463518D01*
X113596Y463564D01*
X113425Y463614D01*
X113402Y463616D01*
X113381Y463622D01*
X113050Y463649D01*
X100637Y463649D01*
X98303Y464616D01*
X58051Y504867D01*
X58034Y504882D01*
X58020Y504899D01*
X57878Y505009D01*
X57740Y505123D01*
X57720Y505133D01*
X57703Y505147D01*
X57542Y505228D01*
X57384Y505311D01*
X57363Y505317D01*
X57343Y505328D01*
X57169Y505375D01*
X56998Y505426D01*
X56976Y505428D01*
X56954Y505434D01*
X56776Y505446D01*
X56597Y505462D01*
X56575Y505460D01*
X56553Y505461D01*
X56375Y505438D01*
X56197Y505419D01*
X56176Y505412D01*
X56154Y505409D01*
X55838Y505308D01*
X54900Y504919D01*
X48900Y504919D01*
X43357Y507215D01*
X39115Y511457D01*
X36819Y517000D01*
X36819Y523000D01*
X39115Y528543D01*
X43357Y532785D01*
X44295Y533173D01*
X44315Y533184D01*
X44336Y533191D01*
X44492Y533279D01*
X44650Y533363D01*
X44667Y533378D01*
X44687Y533389D01*
X44822Y533506D01*
X44961Y533620D01*
X44975Y533637D01*
X44992Y533652D01*
X45101Y533793D01*
X45214Y533933D01*
X45225Y533952D01*
X45238Y533970D01*
X45318Y534130D01*
X45401Y534289D01*
X45408Y534310D01*
X45418Y534330D01*
X45464Y534504D01*
X45514Y534675D01*
X45516Y534698D01*
X45522Y534719D01*
X45549Y535050D01*
X45549Y554950D01*
X45547Y554972D01*
X45549Y554995D01*
X45527Y555172D01*
X45509Y555351D01*
X45503Y555372D01*
X45500Y555394D01*
X45444Y555564D01*
X45391Y555736D01*
X45381Y555755D01*
X45374Y555776D01*
X45285Y555932D01*
X45199Y556090D01*
X45185Y556107D01*
X45174Y556126D01*
X45057Y556261D01*
X44942Y556399D01*
X44924Y556413D01*
X44910Y556430D01*
X44768Y556539D01*
X44628Y556651D01*
X44608Y556661D01*
X44590Y556675D01*
X44295Y556827D01*
X43357Y557215D01*
X39115Y561457D01*
X36819Y567000D01*
X36819Y573000D01*
X39115Y578543D01*
X43357Y582785D01*
X48900Y585081D01*
X54900Y585081D01*
X60443Y582785D01*
X64685Y578543D01*
X66981Y573000D01*
X66981Y567000D01*
X64685Y561457D01*
X60443Y557215D01*
X59505Y556827D01*
X59485Y556816D01*
X59464Y556809D01*
X59308Y556721D01*
X59150Y556637D01*
X59133Y556622D01*
X59113Y556611D01*
X58978Y556494D01*
X58839Y556380D01*
X58825Y556363D01*
X58808Y556348D01*
X58699Y556207D01*
X58586Y556067D01*
X58575Y556048D01*
X58562Y556030D01*
X58482Y555870D01*
X58399Y555711D01*
X58392Y555690D01*
X58382Y555670D01*
X58336Y555496D01*
X58286Y555325D01*
X58284Y555302D01*
X58278Y555281D01*
X58251Y554950D01*
X58251Y535050D01*
X58253Y535028D01*
X58251Y535005D01*
X58273Y534828D01*
X58291Y534649D01*
X58297Y534628D01*
X58300Y534606D01*
X58356Y534436D01*
X58409Y534264D01*
X58419Y534245D01*
X58426Y534224D01*
X58515Y534068D01*
X58601Y533910D01*
X58615Y533893D01*
X58626Y533874D01*
X58743Y533739D01*
X58858Y533601D01*
X58876Y533587D01*
X58890Y533570D01*
X59032Y533461D01*
X59172Y533349D01*
X59192Y533339D01*
X59210Y533325D01*
X59505Y533173D01*
X60443Y532785D01*
X64685Y528543D01*
X66981Y523000D01*
X66981Y517000D01*
X66592Y516062D01*
X66586Y516041D01*
X66576Y516021D01*
X66528Y515849D01*
X66476Y515677D01*
X66474Y515655D01*
X66468Y515633D01*
X66455Y515454D01*
X66438Y515276D01*
X66440Y515254D01*
X66438Y515232D01*
X66461Y515054D01*
X66479Y514876D01*
X66486Y514854D01*
X66489Y514832D01*
X66546Y514662D01*
X66599Y514491D01*
X66610Y514472D01*
X66617Y514451D01*
X66706Y514295D01*
X66792Y514138D01*
X66807Y514121D01*
X66818Y514102D01*
X67033Y513849D01*
X103936Y476946D01*
X103956Y476929D01*
X103974Y476908D01*
X104112Y476801D01*
X104247Y476691D01*
X104271Y476678D01*
X104292Y476662D01*
X104449Y476584D01*
X104603Y476502D01*
X104628Y476494D01*
X104652Y476482D01*
X104822Y476437D01*
X104989Y476387D01*
X105015Y476385D01*
X105041Y476378D01*
X105372Y476351D01*
X113050Y476351D01*
X113072Y476353D01*
X113095Y476351D01*
X113272Y476373D01*
X113451Y476391D01*
X113472Y476397D01*
X113494Y476400D01*
X113664Y476456D01*
X113836Y476509D01*
X113855Y476519D01*
X113876Y476526D01*
X114032Y476615D01*
X114190Y476701D01*
X114207Y476715D01*
X114226Y476726D01*
X114361Y476843D01*
X114499Y476958D01*
X114513Y476976D01*
X114530Y476990D01*
X114639Y477132D01*
X114751Y477272D01*
X114761Y477292D01*
X114775Y477310D01*
X114927Y477605D01*
X115315Y478543D01*
X117779Y481006D01*
X117787Y481016D01*
X117797Y481025D01*
X117915Y481172D01*
X118034Y481318D01*
X118040Y481329D01*
X118048Y481340D01*
X118134Y481507D01*
X118222Y481673D01*
X118226Y481686D01*
X118232Y481698D01*
X118283Y481878D01*
X118337Y482059D01*
X118338Y482073D01*
X118342Y482085D01*
X118356Y482271D01*
X118374Y482460D01*
X118372Y482474D01*
X118373Y482487D01*
X118351Y482671D01*
X118330Y482860D01*
X118326Y482873D01*
X118325Y482887D01*
X118266Y483064D01*
X118209Y483244D01*
X118202Y483256D01*
X118198Y483269D01*
X118105Y483433D01*
X118014Y483597D01*
X118005Y483607D01*
X117999Y483618D01*
X117875Y483761D01*
X117753Y483904D01*
X117743Y483912D01*
X117734Y483922D01*
X117585Y484037D01*
X117437Y484153D01*
X117426Y484159D01*
X117415Y484167D01*
X117120Y484319D01*
X116403Y484616D01*
X84616Y516403D01*
X83649Y518737D01*
X83649Y578428D01*
X83647Y578455D01*
X83649Y578481D01*
X83627Y578655D01*
X83609Y578829D01*
X83602Y578854D01*
X83598Y578881D01*
X83543Y579046D01*
X83491Y579214D01*
X83478Y579237D01*
X83470Y579263D01*
X83383Y579414D01*
X83299Y579568D01*
X83282Y579588D01*
X83269Y579611D01*
X83054Y579864D01*
X57484Y605434D01*
X57464Y605451D01*
X57446Y605472D01*
X57308Y605579D01*
X57173Y605689D01*
X57149Y605702D01*
X57128Y605718D01*
X56971Y605796D01*
X56817Y605878D01*
X56792Y605886D01*
X56768Y605898D01*
X56598Y605943D01*
X56431Y605993D01*
X56405Y605995D01*
X56379Y606002D01*
X56048Y606029D01*
X41999Y606029D01*
X40132Y606803D01*
X38703Y608232D01*
X37929Y610099D01*
X37929Y629901D01*
X38703Y631768D01*
X40132Y633197D01*
X41999Y633971D01*
X56048Y633971D01*
X56075Y633973D01*
X56101Y633971D01*
X56275Y633993D01*
X56449Y634011D01*
X56474Y634018D01*
X56501Y634022D01*
X56667Y634078D01*
X56834Y634129D01*
X56857Y634142D01*
X56883Y634150D01*
X57034Y634237D01*
X57188Y634321D01*
X57208Y634338D01*
X57231Y634351D01*
X57484Y634566D01*
X76230Y653312D01*
X78303Y655384D01*
X80637Y656351D01*
X115506Y656351D01*
X115651Y656365D01*
X115797Y656372D01*
X115851Y656385D01*
X115906Y656391D01*
X116046Y656434D01*
X116188Y656469D01*
X116238Y656492D01*
X116291Y656509D01*
X116420Y656578D01*
X116552Y656641D01*
X116596Y656674D01*
X116645Y656701D01*
X116758Y656794D01*
X116875Y656881D01*
X116912Y656923D01*
X116955Y656958D01*
X117046Y657072D01*
X117144Y657181D01*
X117172Y657229D01*
X117207Y657272D01*
X117274Y657402D01*
X117349Y657528D01*
X117367Y657580D01*
X117392Y657629D01*
X117433Y657770D01*
X117481Y657908D01*
X117488Y657963D01*
X117504Y658016D01*
X117516Y658162D01*
X117536Y658307D01*
X117532Y658362D01*
X117537Y658418D01*
X117520Y658563D01*
X117511Y658709D01*
X117496Y658762D01*
X117490Y658817D01*
X117444Y658956D01*
X117407Y659098D01*
X117380Y659155D01*
X117365Y659200D01*
X117324Y659273D01*
X117265Y659398D01*
X116842Y660129D01*
X116669Y660775D01*
X116669Y667461D01*
X127592Y667461D01*
X127610Y667462D01*
X127627Y667461D01*
X127810Y667482D01*
X127992Y667501D01*
X128009Y667506D01*
X128027Y667508D01*
X128105Y667533D01*
X128242Y667494D01*
X128260Y667492D01*
X128277Y667488D01*
X128608Y667461D01*
X139531Y667461D01*
X139531Y660775D01*
X139358Y660129D01*
X138935Y659398D01*
X138875Y659264D01*
X138808Y659135D01*
X138792Y659081D01*
X138769Y659031D01*
X138737Y658888D01*
X138696Y658748D01*
X138692Y658692D01*
X138679Y658638D01*
X138675Y658492D01*
X138663Y658346D01*
X138670Y658291D01*
X138668Y658236D01*
X138693Y658092D01*
X138710Y657947D01*
X138727Y657894D01*
X138737Y657839D01*
X138790Y657703D01*
X138835Y657564D01*
X138862Y657515D01*
X138882Y657464D01*
X138961Y657341D01*
X139033Y657213D01*
X139069Y657171D01*
X139099Y657124D01*
X139201Y657019D01*
X139296Y656908D01*
X139340Y656874D01*
X139379Y656834D01*
X139499Y656751D01*
X139614Y656662D01*
X139664Y656637D01*
X139710Y656605D01*
X139844Y656547D01*
X139975Y656482D01*
X140028Y656468D01*
X140079Y656446D01*
X140222Y656416D01*
X140364Y656378D01*
X140427Y656373D01*
X140473Y656363D01*
X140557Y656362D01*
X140694Y656351D01*
X299363Y656351D01*
X301697Y655384D01*
X322516Y634566D01*
X322536Y634549D01*
X322554Y634528D01*
X322692Y634421D01*
X322827Y634311D01*
X322851Y634298D01*
X322872Y634282D01*
X323029Y634204D01*
X323183Y634122D01*
X323208Y634114D01*
X323232Y634102D01*
X323402Y634057D01*
X323569Y634007D01*
X323595Y634005D01*
X323621Y633998D01*
X323952Y633971D01*
X338001Y633971D01*
X339868Y633197D01*
X341297Y631768D01*
X342071Y629901D01*
X342071Y610099D01*
X341297Y608232D01*
X339868Y606803D01*
X338001Y606029D01*
X318199Y606029D01*
X316332Y606803D01*
X314903Y608232D01*
X314129Y610099D01*
X314129Y624148D01*
X314127Y624175D01*
X314129Y624201D01*
X314107Y624375D01*
X314089Y624549D01*
X314082Y624574D01*
X314078Y624601D01*
X314023Y624766D01*
X313971Y624934D01*
X313958Y624957D01*
X313950Y624983D01*
X313863Y625134D01*
X313779Y625288D01*
X313762Y625308D01*
X313749Y625331D01*
X313534Y625584D01*
X296064Y643054D01*
X296044Y643071D01*
X296026Y643092D01*
X295888Y643199D01*
X295753Y643309D01*
X295729Y643322D01*
X295708Y643338D01*
X295551Y643416D01*
X295397Y643498D01*
X295372Y643506D01*
X295348Y643518D01*
X295178Y643563D01*
X295011Y643613D01*
X294985Y643615D01*
X294959Y643622D01*
X294628Y643649D01*
X242136Y643649D01*
X242127Y643648D01*
X242118Y643649D01*
X241925Y643628D01*
X241735Y643609D01*
X241727Y643607D01*
X241718Y643606D01*
X241533Y643547D01*
X241350Y643491D01*
X241342Y643487D01*
X241334Y643484D01*
X241166Y643391D01*
X240996Y643299D01*
X240989Y643294D01*
X240982Y643289D01*
X240835Y643165D01*
X240687Y643042D01*
X240681Y643035D01*
X240675Y643029D01*
X240555Y642877D01*
X240435Y642728D01*
X240431Y642720D01*
X240425Y642713D01*
X240337Y642540D01*
X240249Y642371D01*
X240247Y642362D01*
X240243Y642354D01*
X240191Y642168D01*
X240138Y641984D01*
X240137Y641975D01*
X240135Y641966D01*
X240121Y641773D01*
X240105Y641582D01*
X240106Y641574D01*
X240105Y641565D01*
X240130Y641372D01*
X240152Y641183D01*
X240155Y641174D01*
X240156Y641165D01*
X240217Y640983D01*
X240277Y640800D01*
X240281Y640792D01*
X240284Y640784D01*
X240380Y640617D01*
X240475Y640449D01*
X240480Y640442D01*
X240485Y640435D01*
X240700Y640182D01*
X246598Y634283D01*
X246616Y634269D01*
X246630Y634252D01*
X246771Y634141D01*
X246910Y634028D01*
X246929Y634017D01*
X246947Y634004D01*
X247108Y633923D01*
X247265Y633839D01*
X247287Y633833D01*
X247307Y633823D01*
X247480Y633776D01*
X247651Y633725D01*
X247674Y633722D01*
X247695Y633717D01*
X247873Y633704D01*
X248052Y633688D01*
X248075Y633691D01*
X248097Y633689D01*
X248273Y633712D01*
X248453Y633732D01*
X248474Y633738D01*
X248496Y633741D01*
X248812Y633843D01*
X249121Y633971D01*
X254679Y633971D01*
X259814Y631844D01*
X263744Y627914D01*
X265871Y622779D01*
X265871Y617221D01*
X263744Y612086D01*
X259814Y608156D01*
X254679Y606029D01*
X249121Y606029D01*
X243986Y608156D01*
X240056Y612086D01*
X237929Y617221D01*
X237929Y622779D01*
X238057Y623088D01*
X238064Y623109D01*
X238074Y623129D01*
X238122Y623303D01*
X238174Y623473D01*
X238176Y623496D01*
X238182Y623517D01*
X238195Y623697D01*
X238212Y623874D01*
X238210Y623896D01*
X238211Y623919D01*
X238189Y624097D01*
X238170Y624275D01*
X238164Y624296D01*
X238161Y624318D01*
X238104Y624488D01*
X238050Y624659D01*
X238040Y624679D01*
X238033Y624700D01*
X237943Y624856D01*
X237857Y625012D01*
X237843Y625029D01*
X237832Y625049D01*
X237617Y625302D01*
X229864Y633054D01*
X229844Y633071D01*
X229826Y633092D01*
X229688Y633199D01*
X229553Y633309D01*
X229529Y633322D01*
X229508Y633338D01*
X229351Y633416D01*
X229197Y633498D01*
X229172Y633506D01*
X229148Y633518D01*
X228978Y633563D01*
X228811Y633613D01*
X228785Y633615D01*
X228759Y633622D01*
X228428Y633649D01*
X227982Y633649D01*
X227973Y633648D01*
X227964Y633649D01*
X227772Y633628D01*
X227581Y633609D01*
X227573Y633607D01*
X227564Y633606D01*
X227382Y633548D01*
X227196Y633491D01*
X227188Y633487D01*
X227180Y633484D01*
X227012Y633391D01*
X226842Y633299D01*
X226836Y633294D01*
X226828Y633289D01*
X226680Y633164D01*
X226533Y633042D01*
X226528Y633035D01*
X226521Y633029D01*
X226401Y632877D01*
X226281Y632728D01*
X226277Y632720D01*
X226271Y632713D01*
X226183Y632540D01*
X226095Y632371D01*
X226093Y632362D01*
X226089Y632354D01*
X226037Y632168D01*
X225984Y631984D01*
X225983Y631975D01*
X225981Y631966D01*
X225967Y631774D01*
X225951Y631582D01*
X225952Y631574D01*
X225951Y631565D01*
X225976Y631371D01*
X225998Y631183D01*
X226001Y631174D01*
X226002Y631165D01*
X226063Y630982D01*
X226123Y630800D01*
X226127Y630792D01*
X226130Y630784D01*
X226225Y630618D01*
X226321Y630449D01*
X226327Y630442D01*
X226331Y630435D01*
X226546Y630182D01*
X228185Y628543D01*
X230481Y623000D01*
X230481Y617000D01*
X228185Y611457D01*
X223943Y607215D01*
X223005Y606827D01*
X222985Y606816D01*
X222964Y606809D01*
X222808Y606721D01*
X222650Y606637D01*
X222633Y606622D01*
X222613Y606611D01*
X222478Y606494D01*
X222339Y606380D01*
X222325Y606363D01*
X222308Y606348D01*
X222199Y606207D01*
X222086Y606067D01*
X222075Y606048D01*
X222062Y606030D01*
X221982Y605870D01*
X221899Y605711D01*
X221892Y605690D01*
X221882Y605670D01*
X221836Y605496D01*
X221786Y605325D01*
X221784Y605302D01*
X221778Y605281D01*
X221751Y604950D01*
X221751Y591036D01*
X221752Y591027D01*
X221751Y591018D01*
X221772Y590826D01*
X221791Y590635D01*
X221793Y590627D01*
X221794Y590618D01*
X221852Y590436D01*
X221909Y590250D01*
X221913Y590242D01*
X221916Y590234D01*
X222009Y590066D01*
X222101Y589896D01*
X222106Y589889D01*
X222111Y589882D01*
X222235Y589735D01*
X222358Y589587D01*
X222365Y589581D01*
X222371Y589575D01*
X222522Y589456D01*
X222672Y589335D01*
X222680Y589331D01*
X222687Y589325D01*
X222860Y589237D01*
X223029Y589149D01*
X223038Y589147D01*
X223046Y589143D01*
X223232Y589091D01*
X223416Y589038D01*
X223425Y589037D01*
X223434Y589035D01*
X223627Y589021D01*
X223818Y589005D01*
X223826Y589006D01*
X223835Y589005D01*
X224028Y589030D01*
X224217Y589052D01*
X224226Y589055D01*
X224235Y589056D01*
X224418Y589117D01*
X224600Y589177D01*
X224608Y589181D01*
X224616Y589184D01*
X224783Y589280D01*
X224951Y589375D01*
X224958Y589380D01*
X224965Y589385D01*
X225218Y589600D01*
X228930Y593312D01*
X231003Y595384D01*
X233337Y596351D01*
X309363Y596351D01*
X311697Y595384D01*
X313770Y593312D01*
X321949Y585133D01*
X321966Y585118D01*
X321980Y585101D01*
X322122Y584991D01*
X322260Y584877D01*
X322280Y584867D01*
X322297Y584853D01*
X322458Y584773D01*
X322616Y584689D01*
X322637Y584683D01*
X322657Y584672D01*
X322830Y584625D01*
X323002Y584574D01*
X323024Y584572D01*
X323046Y584566D01*
X323224Y584554D01*
X323403Y584538D01*
X323425Y584540D01*
X323447Y584539D01*
X323625Y584562D01*
X323803Y584581D01*
X323824Y584588D01*
X323846Y584591D01*
X324162Y584692D01*
X325100Y585081D01*
X331100Y585081D01*
X336643Y582785D01*
X340885Y578543D01*
X343181Y573000D01*
X343181Y567000D01*
X340885Y561457D01*
X336643Y557215D01*
X331100Y554919D01*
X325100Y554919D01*
X319557Y557215D01*
X315315Y561457D01*
X313019Y567000D01*
X313019Y573000D01*
X313408Y573938D01*
X313414Y573959D01*
X313424Y573979D01*
X313472Y574151D01*
X313524Y574323D01*
X313526Y574345D01*
X313532Y574367D01*
X313545Y574546D01*
X313562Y574724D01*
X313560Y574746D01*
X313562Y574768D01*
X313539Y574947D01*
X313521Y575124D01*
X313514Y575146D01*
X313511Y575168D01*
X313454Y575338D01*
X313401Y575509D01*
X313390Y575528D01*
X313383Y575549D01*
X313294Y575705D01*
X313208Y575862D01*
X313193Y575879D01*
X313182Y575898D01*
X312967Y576151D01*
X306064Y583054D01*
X306049Y583067D01*
X306037Y583081D01*
X306032Y583084D01*
X306026Y583092D01*
X305888Y583199D01*
X305753Y583309D01*
X305729Y583322D01*
X305708Y583338D01*
X305551Y583416D01*
X305397Y583498D01*
X305372Y583506D01*
X305348Y583518D01*
X305178Y583563D01*
X305011Y583613D01*
X304985Y583615D01*
X304959Y583622D01*
X304628Y583649D01*
X264482Y583649D01*
X264473Y583648D01*
X264464Y583649D01*
X264272Y583628D01*
X264081Y583609D01*
X264073Y583607D01*
X264064Y583606D01*
X263882Y583548D01*
X263696Y583491D01*
X263688Y583487D01*
X263680Y583484D01*
X263512Y583391D01*
X263342Y583299D01*
X263336Y583294D01*
X263328Y583289D01*
X263179Y583163D01*
X263033Y583042D01*
X263028Y583035D01*
X263021Y583029D01*
X262900Y582877D01*
X262781Y582728D01*
X262777Y582720D01*
X262771Y582713D01*
X262684Y582541D01*
X262595Y582371D01*
X262593Y582362D01*
X262589Y582354D01*
X262537Y582168D01*
X262484Y581984D01*
X262483Y581975D01*
X262481Y581966D01*
X262467Y581774D01*
X262451Y581582D01*
X262452Y581574D01*
X262451Y581565D01*
X262476Y581372D01*
X262498Y581183D01*
X262501Y581174D01*
X262502Y581165D01*
X262563Y580982D01*
X262623Y580800D01*
X262627Y580792D01*
X262630Y580784D01*
X262725Y580618D01*
X262821Y580449D01*
X262827Y580442D01*
X262831Y580435D01*
X263046Y580182D01*
X264685Y578543D01*
X266981Y573000D01*
X266981Y567000D01*
X264685Y561457D01*
X260443Y557215D01*
X254900Y554919D01*
X248900Y554919D01*
X243357Y557215D01*
X239115Y561457D01*
X236819Y567000D01*
X236819Y573000D01*
X239115Y578543D01*
X240754Y580182D01*
X240756Y580183D01*
X240756Y580184D01*
X240761Y580189D01*
X240767Y580194D01*
X240887Y580344D01*
X241009Y580493D01*
X241014Y580501D01*
X241019Y580508D01*
X241108Y580678D01*
X241198Y580849D01*
X241201Y580858D01*
X241205Y580865D01*
X241258Y581050D01*
X241313Y581235D01*
X241314Y581244D01*
X241316Y581252D01*
X241332Y581443D01*
X241349Y581636D01*
X241348Y581645D01*
X241349Y581654D01*
X241327Y581843D01*
X241306Y582036D01*
X241303Y582045D01*
X241302Y582053D01*
X241243Y582235D01*
X241184Y582420D01*
X241180Y582428D01*
X241177Y582436D01*
X241083Y582603D01*
X240990Y582772D01*
X240984Y582779D01*
X240979Y582787D01*
X240854Y582932D01*
X240729Y583079D01*
X240722Y583085D01*
X240716Y583092D01*
X240566Y583208D01*
X240413Y583329D01*
X240405Y583333D01*
X240398Y583338D01*
X240227Y583424D01*
X240054Y583511D01*
X240046Y583514D01*
X240038Y583518D01*
X239852Y583568D01*
X239666Y583619D01*
X239657Y583620D01*
X239649Y583622D01*
X239318Y583649D01*
X238072Y583649D01*
X238045Y583647D01*
X238019Y583649D01*
X237845Y583627D01*
X237671Y583609D01*
X237646Y583602D01*
X237619Y583598D01*
X237454Y583543D01*
X237286Y583491D01*
X237263Y583478D01*
X237238Y583470D01*
X237086Y583383D01*
X236932Y583299D01*
X236912Y583282D01*
X236889Y583269D01*
X236636Y583054D01*
X229283Y575702D01*
X229269Y575684D01*
X229252Y575670D01*
X229141Y575529D01*
X229028Y575390D01*
X229017Y575370D01*
X229004Y575353D01*
X228923Y575193D01*
X228839Y575035D01*
X228833Y575013D01*
X228823Y574993D01*
X228776Y574820D01*
X228725Y574649D01*
X228722Y574626D01*
X228717Y574605D01*
X228704Y574427D01*
X228688Y574248D01*
X228691Y574225D01*
X228689Y574203D01*
X228712Y574027D01*
X228732Y573847D01*
X228738Y573826D01*
X228741Y573804D01*
X228843Y573488D01*
X228971Y573179D01*
X228971Y567621D01*
X226844Y562486D01*
X223494Y559136D01*
X223483Y559123D01*
X223469Y559111D01*
X223355Y558967D01*
X223239Y558825D01*
X223230Y558809D01*
X223219Y558795D01*
X223136Y558631D01*
X223050Y558469D01*
X223045Y558452D01*
X223037Y558436D01*
X222988Y558259D01*
X222935Y558083D01*
X222934Y558065D01*
X222929Y558048D01*
X222916Y557865D01*
X222899Y557682D01*
X222901Y557664D01*
X222900Y557647D01*
X222923Y557465D01*
X222942Y557282D01*
X222948Y557265D01*
X222950Y557247D01*
X223008Y557074D01*
X223064Y556898D01*
X223073Y556882D01*
X223078Y556866D01*
X223170Y556706D01*
X223259Y556546D01*
X223270Y556532D01*
X223279Y556517D01*
X223494Y556264D01*
X226844Y552914D01*
X227030Y552464D01*
X227043Y552441D01*
X227051Y552415D01*
X227138Y552263D01*
X227220Y552109D01*
X227237Y552089D01*
X227251Y552065D01*
X227365Y551934D01*
X227477Y551799D01*
X227498Y551782D01*
X227515Y551762D01*
X227653Y551656D01*
X227789Y551545D01*
X227813Y551533D01*
X227834Y551516D01*
X228129Y551365D01*
X230497Y550384D01*
X232570Y548312D01*
X245749Y535133D01*
X245766Y535118D01*
X245780Y535101D01*
X245922Y534991D01*
X246060Y534877D01*
X246080Y534867D01*
X246097Y534853D01*
X246258Y534773D01*
X246416Y534689D01*
X246437Y534683D01*
X246457Y534672D01*
X246630Y534625D01*
X246802Y534574D01*
X246824Y534572D01*
X246846Y534566D01*
X247024Y534554D01*
X247203Y534538D01*
X247225Y534540D01*
X247247Y534539D01*
X247425Y534562D01*
X247603Y534581D01*
X247624Y534588D01*
X247646Y534591D01*
X247962Y534692D01*
X248900Y535081D01*
X254900Y535081D01*
X260443Y532785D01*
X264685Y528543D01*
X266981Y523000D01*
X266981Y517000D01*
X266592Y516062D01*
X266586Y516041D01*
X266576Y516021D01*
X266528Y515849D01*
X266476Y515677D01*
X266474Y515655D01*
X266468Y515633D01*
X266455Y515454D01*
X266438Y515276D01*
X266440Y515254D01*
X266438Y515232D01*
X266461Y515053D01*
X266479Y514876D01*
X266486Y514854D01*
X266489Y514832D01*
X266546Y514662D01*
X266599Y514491D01*
X266610Y514472D01*
X266617Y514451D01*
X266706Y514295D01*
X266792Y514138D01*
X266807Y514121D01*
X266818Y514102D01*
X267033Y513849D01*
X283312Y497570D01*
X285384Y495497D01*
X286351Y493163D01*
X286351Y458737D01*
X285384Y456403D01*
X273597Y444616D01*
X271263Y443649D01*
X234137Y443649D01*
X231779Y444626D01*
X231766Y444630D01*
X231755Y444636D01*
X231575Y444688D01*
X231394Y444742D01*
X231381Y444744D01*
X231368Y444747D01*
X231180Y444763D01*
X230993Y444780D01*
X230980Y444779D01*
X230966Y444780D01*
X230780Y444758D01*
X230593Y444739D01*
X230580Y444735D01*
X230567Y444733D01*
X230387Y444675D01*
X230208Y444619D01*
X230197Y444613D01*
X230184Y444608D01*
X230020Y444516D01*
X229855Y444426D01*
X229845Y444417D01*
X229833Y444410D01*
X229691Y444288D01*
X229547Y444166D01*
X229539Y444156D01*
X229528Y444147D01*
X229414Y443999D01*
X229296Y443852D01*
X229290Y443840D01*
X229282Y443829D01*
X229198Y443661D01*
X229112Y443494D01*
X229108Y443481D01*
X229102Y443469D01*
X229053Y443286D01*
X229002Y443106D01*
X229001Y443093D01*
X228998Y443080D01*
X228971Y442749D01*
X228971Y442221D01*
X226844Y437086D01*
X223494Y433736D01*
X223483Y433723D01*
X223469Y433711D01*
X223355Y433567D01*
X223239Y433425D01*
X223230Y433409D01*
X223219Y433395D01*
X223136Y433231D01*
X223050Y433069D01*
X223045Y433052D01*
X223037Y433036D01*
X222988Y432859D01*
X222935Y432683D01*
X222934Y432665D01*
X222929Y432648D01*
X222916Y432464D01*
X222899Y432282D01*
X222901Y432264D01*
X222900Y432247D01*
X222923Y432065D01*
X222942Y431882D01*
X222948Y431865D01*
X222950Y431847D01*
X223008Y431674D01*
X223064Y431498D01*
X223073Y431482D01*
X223078Y431466D01*
X223170Y431306D01*
X223259Y431146D01*
X223270Y431132D01*
X223279Y431117D01*
X223494Y430864D01*
X226865Y427492D01*
X226908Y427417D01*
X226993Y427258D01*
X227007Y427241D01*
X227018Y427222D01*
X227135Y427086D01*
X227249Y426948D01*
X227266Y426934D01*
X227281Y426917D01*
X227422Y426807D01*
X227562Y426694D01*
X227581Y426684D01*
X227599Y426670D01*
X227759Y426591D01*
X227918Y426507D01*
X227940Y426501D01*
X227959Y426491D01*
X228132Y426444D01*
X228305Y426394D01*
X228327Y426392D01*
X228348Y426386D01*
X228679Y426359D01*
X236852Y426356D01*
X236874Y426358D01*
X236897Y426357D01*
X237074Y426378D01*
X237252Y426396D01*
X237274Y426403D01*
X237296Y426405D01*
X237466Y426461D01*
X237637Y426514D01*
X237657Y426525D01*
X237679Y426532D01*
X237834Y426620D01*
X237991Y426706D01*
X238009Y426720D01*
X238028Y426731D01*
X238163Y426849D01*
X238301Y426963D01*
X238315Y426981D01*
X238332Y426996D01*
X238441Y427138D01*
X238553Y427277D01*
X238563Y427297D01*
X238577Y427315D01*
X238729Y427610D01*
X239115Y428543D01*
X243357Y432785D01*
X248900Y435081D01*
X254900Y435081D01*
X260443Y432785D01*
X264685Y428543D01*
X266981Y423000D01*
X266981Y417000D01*
X264685Y411457D01*
X260443Y407215D01*
X254900Y404919D01*
X248900Y404919D01*
X243357Y407215D01*
X239115Y411457D01*
X238724Y412401D01*
X238714Y412420D01*
X238707Y412441D01*
X238619Y412598D01*
X238534Y412756D01*
X238520Y412773D01*
X238509Y412792D01*
X238392Y412928D01*
X238278Y413066D01*
X238261Y413080D01*
X238246Y413096D01*
X238105Y413206D01*
X237965Y413320D01*
X237946Y413330D01*
X237928Y413343D01*
X237768Y413423D01*
X237609Y413507D01*
X237588Y413513D01*
X237568Y413523D01*
X237395Y413570D01*
X237222Y413620D01*
X237200Y413622D01*
X237179Y413628D01*
X236849Y413655D01*
X229018Y413658D01*
X228996Y413655D01*
X228973Y413657D01*
X228796Y413636D01*
X228618Y413618D01*
X228596Y413611D01*
X228573Y413608D01*
X228404Y413552D01*
X228233Y413500D01*
X228213Y413489D01*
X228191Y413482D01*
X228036Y413393D01*
X227879Y413308D01*
X227861Y413294D01*
X227841Y413282D01*
X227707Y413165D01*
X227569Y413051D01*
X227555Y413033D01*
X227538Y413018D01*
X227429Y412876D01*
X227317Y412737D01*
X227306Y412717D01*
X227293Y412699D01*
X227141Y412404D01*
X226844Y411686D01*
X222914Y407756D01*
X217779Y405629D01*
X212221Y405629D01*
X209011Y406959D01*
X208998Y406963D01*
X208986Y406969D01*
X208807Y407021D01*
X208626Y407075D01*
X208612Y407077D01*
X208600Y407080D01*
X208412Y407096D01*
X208225Y407113D01*
X208212Y407112D01*
X208198Y407113D01*
X208012Y407091D01*
X207824Y407072D01*
X207812Y407068D01*
X207798Y407066D01*
X207620Y407008D01*
X207440Y406952D01*
X207428Y406946D01*
X207416Y406941D01*
X207252Y406849D01*
X207087Y406759D01*
X207077Y406750D01*
X207065Y406744D01*
X206923Y406621D01*
X206779Y406500D01*
X206770Y406489D01*
X206760Y406480D01*
X206646Y406333D01*
X206528Y406185D01*
X206522Y406173D01*
X206514Y406162D01*
X206430Y405994D01*
X206344Y405827D01*
X206340Y405814D01*
X206334Y405802D01*
X206285Y405619D01*
X206234Y405439D01*
X206233Y405426D01*
X206230Y405413D01*
X206203Y405082D01*
X206203Y389030D01*
X206205Y389004D01*
X206203Y388977D01*
X206225Y388804D01*
X206242Y388629D01*
X206250Y388604D01*
X206254Y388578D01*
X206309Y388412D01*
X206361Y388244D01*
X206373Y388221D01*
X206382Y388196D01*
X206469Y388044D01*
X206552Y387890D01*
X206569Y387870D01*
X206582Y387847D01*
X206797Y387594D01*
X208854Y385535D01*
X208871Y385521D01*
X208886Y385504D01*
X209027Y385393D01*
X209165Y385280D01*
X209185Y385270D01*
X209203Y385256D01*
X209363Y385175D01*
X209521Y385092D01*
X209543Y385085D01*
X209563Y385075D01*
X209735Y385028D01*
X209907Y384977D01*
X209929Y384975D01*
X209951Y384969D01*
X210129Y384956D01*
X210308Y384940D01*
X210331Y384943D01*
X210353Y384941D01*
X210529Y384964D01*
X210708Y384983D01*
X210730Y384990D01*
X210752Y384993D01*
X211068Y385095D01*
X212000Y385481D01*
X218000Y385481D01*
X223543Y383185D01*
X227785Y378943D01*
X228171Y378010D01*
X228182Y377990D01*
X228189Y377969D01*
X228277Y377813D01*
X228361Y377655D01*
X228376Y377638D01*
X228387Y377618D01*
X228504Y377483D01*
X228618Y377345D01*
X228635Y377331D01*
X228650Y377313D01*
X228792Y377203D01*
X228930Y377091D01*
X228950Y377081D01*
X228968Y377067D01*
X229129Y376987D01*
X229287Y376904D01*
X229309Y376898D01*
X229329Y376888D01*
X229502Y376841D01*
X229673Y376791D01*
X229696Y376789D01*
X229718Y376783D01*
X230048Y376756D01*
X237020Y376759D01*
X237042Y376761D01*
X237064Y376759D01*
X237241Y376781D01*
X237420Y376799D01*
X237441Y376805D01*
X237463Y376808D01*
X237633Y376864D01*
X237805Y376917D01*
X237825Y376927D01*
X237845Y376934D01*
X238001Y377023D01*
X238159Y377109D01*
X238176Y377123D01*
X238195Y377134D01*
X238330Y377252D01*
X238468Y377367D01*
X238482Y377384D01*
X238499Y377398D01*
X238608Y377541D01*
X238721Y377681D01*
X238731Y377700D01*
X238744Y377717D01*
X238896Y378013D01*
X239115Y378543D01*
X243357Y382785D01*
X248900Y385081D01*
X254900Y385081D01*
X260443Y382785D01*
X264685Y378543D01*
X266981Y373000D01*
X266981Y367000D01*
X264685Y361457D01*
X260443Y357215D01*
X259505Y356827D01*
X259485Y356816D01*
X259464Y356809D01*
X259308Y356721D01*
X259150Y356637D01*
X259133Y356622D01*
X259113Y356611D01*
X258978Y356494D01*
X258839Y356380D01*
X258825Y356363D01*
X258808Y356348D01*
X258699Y356207D01*
X258586Y356067D01*
X258575Y356048D01*
X258562Y356030D01*
X258482Y355870D01*
X258399Y355711D01*
X258392Y355690D01*
X258382Y355670D01*
X258336Y355496D01*
X258286Y355325D01*
X258284Y355302D01*
X258278Y355281D01*
X258251Y354950D01*
X258251Y335050D01*
X258253Y335028D01*
X258251Y335005D01*
X258273Y334828D01*
X258291Y334649D01*
X258297Y334628D01*
X258300Y334606D01*
X258356Y334436D01*
X258409Y334264D01*
X258419Y334245D01*
X258426Y334224D01*
X258515Y334068D01*
X258601Y333910D01*
X258615Y333893D01*
X258626Y333874D01*
X258743Y333739D01*
X258858Y333601D01*
X258876Y333587D01*
X258890Y333570D01*
X259032Y333461D01*
X259172Y333349D01*
X259192Y333339D01*
X259210Y333325D01*
X259505Y333173D01*
X260443Y332785D01*
X264685Y328543D01*
X266981Y323000D01*
X266981Y317000D01*
X264685Y311457D01*
X260443Y307215D01*
X254900Y304919D01*
X248900Y304919D01*
G37*
%LPD*%
%LPC*%
G36*
X174521Y666029D02*
X174521Y666029D01*
X169386Y668156D01*
X165456Y672086D01*
X163329Y677221D01*
X163329Y682779D01*
X165456Y687914D01*
X169386Y691844D01*
X174521Y693971D01*
X180079Y693971D01*
X185214Y691844D01*
X188055Y689002D01*
X188169Y688910D01*
X188277Y688811D01*
X188324Y688782D01*
X188367Y688747D01*
X188496Y688679D01*
X188621Y688603D01*
X188674Y688584D01*
X188723Y688559D01*
X188863Y688517D01*
X189001Y688468D01*
X189055Y688460D01*
X189108Y688444D01*
X189254Y688431D01*
X189399Y688409D01*
X189454Y688412D01*
X189509Y688407D01*
X189655Y688423D01*
X189801Y688431D01*
X189855Y688445D01*
X189910Y688451D01*
X190049Y688495D01*
X190191Y688531D01*
X190241Y688556D01*
X190294Y688572D01*
X190422Y688643D01*
X190553Y688707D01*
X190597Y688740D01*
X190646Y688767D01*
X190757Y688862D01*
X190874Y688950D01*
X190911Y688992D01*
X190953Y689028D01*
X191044Y689142D01*
X191140Y689252D01*
X191168Y689300D01*
X191202Y689344D01*
X191269Y689474D01*
X191342Y689601D01*
X191363Y689660D01*
X191385Y689702D01*
X191407Y689783D01*
X191432Y689854D01*
X191777Y690450D01*
X192250Y690923D01*
X192829Y691258D01*
X193475Y691431D01*
X200161Y691431D01*
X200161Y680508D01*
X200162Y680490D01*
X200161Y680473D01*
X200182Y680290D01*
X200201Y680108D01*
X200206Y680091D01*
X200208Y680073D01*
X200233Y679995D01*
X200194Y679858D01*
X200192Y679840D01*
X200188Y679823D01*
X200161Y679492D01*
X200161Y668569D01*
X193475Y668569D01*
X192829Y668742D01*
X192250Y669077D01*
X191777Y669550D01*
X191429Y670152D01*
X191402Y670224D01*
X191358Y670363D01*
X191331Y670412D01*
X191312Y670464D01*
X191234Y670588D01*
X191163Y670716D01*
X191127Y670758D01*
X191098Y670805D01*
X190997Y670911D01*
X190903Y671023D01*
X190859Y671057D01*
X190821Y671097D01*
X190702Y671182D01*
X190587Y671272D01*
X190537Y671297D01*
X190492Y671329D01*
X190358Y671388D01*
X190228Y671455D01*
X190174Y671470D01*
X190124Y671492D01*
X189981Y671523D01*
X189840Y671563D01*
X189785Y671567D01*
X189731Y671579D01*
X189584Y671581D01*
X189438Y671592D01*
X189383Y671585D01*
X189328Y671586D01*
X189184Y671560D01*
X189039Y671542D01*
X188986Y671524D01*
X188932Y671514D01*
X188796Y671460D01*
X188657Y671413D01*
X188609Y671386D01*
X188558Y671365D01*
X188435Y671286D01*
X188308Y671212D01*
X188260Y671172D01*
X188220Y671146D01*
X188161Y671087D01*
X188055Y670998D01*
X185214Y668156D01*
X180079Y666029D01*
X174521Y666029D01*
G37*
%LPD*%
%LPC*%
G36*
X48900Y404919D02*
X48900Y404919D01*
X43357Y407215D01*
X39115Y411457D01*
X36819Y417000D01*
X36819Y423000D01*
X39115Y428543D01*
X43357Y432785D01*
X48900Y435081D01*
X54900Y435081D01*
X60443Y432785D01*
X64685Y428543D01*
X66981Y423000D01*
X66981Y417000D01*
X64685Y411457D01*
X60443Y407215D01*
X54900Y404919D01*
X48900Y404919D01*
G37*
%LPD*%
%LPC*%
G36*
X325100Y404919D02*
X325100Y404919D01*
X319557Y407215D01*
X315315Y411457D01*
X313019Y417000D01*
X313019Y423000D01*
X315315Y428543D01*
X319557Y432785D01*
X325100Y435081D01*
X331100Y435081D01*
X336643Y432785D01*
X340885Y428543D01*
X343181Y423000D01*
X343181Y417000D01*
X340885Y411457D01*
X336643Y407215D01*
X331100Y404919D01*
X325100Y404919D01*
G37*
%LPD*%
%LPC*%
G36*
X48900Y354919D02*
X48900Y354919D01*
X43357Y357215D01*
X39115Y361457D01*
X36819Y367000D01*
X36819Y373000D01*
X39115Y378543D01*
X43357Y382785D01*
X48900Y385081D01*
X54900Y385081D01*
X60443Y382785D01*
X64685Y378543D01*
X66981Y373000D01*
X66981Y367000D01*
X64685Y361457D01*
X60443Y357215D01*
X54900Y354919D01*
X48900Y354919D01*
G37*
%LPD*%
%LPC*%
G36*
X325100Y304919D02*
X325100Y304919D01*
X319557Y307215D01*
X315315Y311457D01*
X313019Y317000D01*
X313019Y323000D01*
X315315Y328543D01*
X319557Y332785D01*
X325100Y335081D01*
X331100Y335081D01*
X336643Y332785D01*
X340885Y328543D01*
X343181Y323000D01*
X343181Y317000D01*
X340885Y311457D01*
X336643Y307215D01*
X331100Y304919D01*
X325100Y304919D01*
G37*
%LPD*%
%LPC*%
G36*
X325100Y254919D02*
X325100Y254919D01*
X319557Y257215D01*
X315315Y261457D01*
X313019Y267000D01*
X313019Y273000D01*
X315315Y278543D01*
X319557Y282785D01*
X325100Y285081D01*
X331100Y285081D01*
X336643Y282785D01*
X340885Y278543D01*
X343181Y273000D01*
X343181Y267000D01*
X340885Y261457D01*
X336643Y257215D01*
X331100Y254919D01*
X325100Y254919D01*
G37*
%LPD*%
%LPC*%
G36*
X49121Y656029D02*
X49121Y656029D01*
X43986Y658156D01*
X40056Y662086D01*
X37929Y667221D01*
X37929Y672779D01*
X40056Y677914D01*
X43986Y681844D01*
X49121Y683971D01*
X54679Y683971D01*
X59814Y681844D01*
X63744Y677914D01*
X65871Y672779D01*
X65871Y667221D01*
X63744Y662086D01*
X59814Y658156D01*
X54679Y656029D01*
X49121Y656029D01*
G37*
%LPD*%
%LPC*%
G36*
X192499Y742499D02*
X192499Y742499D01*
X192499Y755041D01*
X203486Y755041D01*
X205441Y754783D01*
X207345Y754273D01*
X209166Y753519D01*
X210874Y752533D01*
X212438Y751332D01*
X213832Y749938D01*
X215033Y748374D01*
X216019Y746666D01*
X216773Y744845D01*
X217283Y742941D01*
X217341Y742499D01*
X192499Y742499D01*
G37*
%LPD*%
%LPC*%
G36*
X162659Y742499D02*
X162659Y742499D01*
X162717Y742941D01*
X163227Y744845D01*
X163981Y746666D01*
X164967Y748374D01*
X166168Y749938D01*
X167562Y751332D01*
X169126Y752533D01*
X170834Y753519D01*
X172655Y754273D01*
X174559Y754783D01*
X176514Y755041D01*
X187501Y755041D01*
X187501Y742499D01*
X162659Y742499D01*
G37*
%LPD*%
%LPC*%
G36*
X192499Y724959D02*
X192499Y724959D01*
X192499Y737501D01*
X217341Y737501D01*
X217283Y737059D01*
X216773Y735155D01*
X216019Y733334D01*
X215033Y731626D01*
X213832Y730062D01*
X212438Y728668D01*
X210874Y727467D01*
X209166Y726481D01*
X207345Y725727D01*
X205441Y725217D01*
X203486Y724959D01*
X192499Y724959D01*
G37*
%LPD*%
%LPC*%
G36*
X176514Y724959D02*
X176514Y724959D01*
X174559Y725217D01*
X172655Y725727D01*
X170834Y726481D01*
X169126Y727467D01*
X167562Y728668D01*
X166168Y730062D01*
X164967Y731626D01*
X163981Y733334D01*
X163227Y735155D01*
X162717Y737059D01*
X162659Y737501D01*
X187501Y737501D01*
X187501Y724959D01*
X176514Y724959D01*
G37*
%LPD*%
%LPC*%
G36*
X205239Y682539D02*
X205239Y682539D01*
X205239Y691431D01*
X211925Y691431D01*
X212571Y691258D01*
X213150Y690923D01*
X213623Y690450D01*
X213958Y689871D01*
X214131Y689225D01*
X214131Y682539D01*
X205239Y682539D01*
G37*
%LPD*%
%LPC*%
G36*
X130639Y672539D02*
X130639Y672539D01*
X130639Y681431D01*
X137325Y681431D01*
X137971Y681258D01*
X138550Y680923D01*
X139023Y680450D01*
X139358Y679871D01*
X139531Y679225D01*
X139531Y672539D01*
X130639Y672539D01*
G37*
%LPD*%
%LPC*%
G36*
X116669Y672539D02*
X116669Y672539D01*
X116669Y679225D01*
X116842Y679871D01*
X117177Y680450D01*
X117650Y680923D01*
X118229Y681258D01*
X118875Y681431D01*
X125561Y681431D01*
X125561Y672539D01*
X116669Y672539D01*
G37*
%LPD*%
%LPC*%
G36*
X205239Y668569D02*
X205239Y668569D01*
X205239Y677461D01*
X214131Y677461D01*
X214131Y670775D01*
X213958Y670129D01*
X213623Y669550D01*
X213150Y669077D01*
X212571Y668742D01*
X211925Y668569D01*
X205239Y668569D01*
G37*
%LPD*%
%LPC*%
G36*
X54399Y472499D02*
X54399Y472499D01*
X54399Y482301D01*
X54837Y482232D01*
X56714Y481622D01*
X58473Y480726D01*
X60070Y479566D01*
X61466Y478170D01*
X62626Y476573D01*
X63522Y474814D01*
X64132Y472937D01*
X64201Y472499D01*
X54399Y472499D01*
G37*
%LPD*%
%LPC*%
G36*
X330599Y522499D02*
X330599Y522499D01*
X330599Y532301D01*
X331037Y532232D01*
X332914Y531622D01*
X334673Y530726D01*
X336270Y529566D01*
X337666Y528170D01*
X338826Y526573D01*
X339722Y524814D01*
X340332Y522937D01*
X340401Y522499D01*
X330599Y522499D01*
G37*
%LPD*%
%LPC*%
G36*
X330599Y472499D02*
X330599Y472499D01*
X330599Y482301D01*
X331037Y482232D01*
X332914Y481622D01*
X334673Y480726D01*
X336270Y479566D01*
X337666Y478170D01*
X338826Y476573D01*
X339722Y474814D01*
X340332Y472937D01*
X340401Y472499D01*
X330599Y472499D01*
G37*
%LPD*%
%LPC*%
G36*
X330599Y372499D02*
X330599Y372499D01*
X330599Y382301D01*
X331037Y382232D01*
X332914Y381622D01*
X334673Y380726D01*
X336270Y379566D01*
X337666Y378170D01*
X338826Y376573D01*
X339722Y374814D01*
X340332Y372937D01*
X340401Y372499D01*
X330599Y372499D01*
G37*
%LPD*%
%LPC*%
G36*
X54398Y272512D02*
X54398Y272512D01*
X54398Y282314D01*
X54835Y282245D01*
X56713Y281635D01*
X58471Y280739D01*
X60068Y279579D01*
X61464Y278183D01*
X62624Y276586D01*
X63520Y274827D01*
X64130Y272950D01*
X64200Y272512D01*
X54398Y272512D01*
G37*
%LPD*%
%LPC*%
G36*
X315799Y522499D02*
X315799Y522499D01*
X315868Y522937D01*
X316478Y524814D01*
X317374Y526573D01*
X318534Y528170D01*
X319930Y529566D01*
X321527Y530726D01*
X323286Y531622D01*
X325163Y532232D01*
X325601Y532301D01*
X325601Y522499D01*
X315799Y522499D01*
G37*
%LPD*%
%LPC*%
G36*
X330599Y517501D02*
X330599Y517501D01*
X340401Y517501D01*
X340332Y517063D01*
X339722Y515186D01*
X338826Y513427D01*
X337666Y511830D01*
X336270Y510434D01*
X334673Y509274D01*
X332914Y508378D01*
X331037Y507768D01*
X330599Y507699D01*
X330599Y517501D01*
G37*
%LPD*%
%LPC*%
G36*
X315799Y372499D02*
X315799Y372499D01*
X315868Y372937D01*
X316478Y374814D01*
X317374Y376573D01*
X318534Y378170D01*
X319930Y379566D01*
X321527Y380726D01*
X323286Y381622D01*
X325163Y382232D01*
X325601Y382301D01*
X325601Y372499D01*
X315799Y372499D01*
G37*
%LPD*%
%LPC*%
G36*
X39599Y472499D02*
X39599Y472499D01*
X39668Y472937D01*
X40278Y474814D01*
X41174Y476573D01*
X42334Y478170D01*
X43730Y479566D01*
X45327Y480726D01*
X47086Y481622D01*
X48963Y482232D01*
X49401Y482301D01*
X49401Y472499D01*
X39599Y472499D01*
G37*
%LPD*%
%LPC*%
G36*
X330599Y367501D02*
X330599Y367501D01*
X340401Y367501D01*
X340332Y367063D01*
X339722Y365186D01*
X338826Y363427D01*
X337666Y361830D01*
X336270Y360434D01*
X334673Y359274D01*
X332914Y358378D01*
X331037Y357768D01*
X330599Y357699D01*
X330599Y367501D01*
G37*
%LPD*%
%LPC*%
G36*
X315799Y472499D02*
X315799Y472499D01*
X315868Y472937D01*
X316478Y474814D01*
X317374Y476573D01*
X318534Y478170D01*
X319930Y479566D01*
X321527Y480726D01*
X323286Y481622D01*
X325163Y482232D01*
X325601Y482301D01*
X325601Y472499D01*
X315799Y472499D01*
G37*
%LPD*%
%LPC*%
G36*
X54399Y467501D02*
X54399Y467501D01*
X64201Y467501D01*
X64132Y467063D01*
X63522Y465186D01*
X62626Y463427D01*
X61466Y461830D01*
X60070Y460434D01*
X58473Y459274D01*
X56714Y458378D01*
X54837Y457768D01*
X54399Y457699D01*
X54399Y467501D01*
G37*
%LPD*%
%LPC*%
G36*
X39597Y272512D02*
X39597Y272512D01*
X39666Y272950D01*
X40277Y274827D01*
X41173Y276586D01*
X42333Y278183D01*
X43729Y279579D01*
X45326Y280739D01*
X47084Y281635D01*
X48962Y282245D01*
X49399Y282314D01*
X49399Y272512D01*
X39597Y272512D01*
G37*
%LPD*%
%LPC*%
G36*
X330599Y467501D02*
X330599Y467501D01*
X340401Y467501D01*
X340332Y467063D01*
X339722Y465186D01*
X338826Y463427D01*
X337666Y461830D01*
X336270Y460434D01*
X334673Y459274D01*
X332914Y458378D01*
X331037Y457768D01*
X330599Y457699D01*
X330599Y467501D01*
G37*
%LPD*%
%LPC*%
G36*
X54398Y267514D02*
X54398Y267514D01*
X64200Y267514D01*
X64130Y267077D01*
X63520Y265199D01*
X62624Y263440D01*
X61464Y261843D01*
X60068Y260448D01*
X58471Y259287D01*
X56713Y258391D01*
X54835Y257781D01*
X54398Y257712D01*
X54398Y267514D01*
G37*
%LPD*%
%LPC*%
G36*
X325163Y457768D02*
X325163Y457768D01*
X323286Y458378D01*
X321527Y459274D01*
X319930Y460434D01*
X318534Y461830D01*
X317374Y463427D01*
X316478Y465186D01*
X315868Y467063D01*
X315799Y467501D01*
X325601Y467501D01*
X325601Y457699D01*
X325163Y457768D01*
G37*
%LPD*%
%LPC*%
G36*
X48963Y457768D02*
X48963Y457768D01*
X47086Y458378D01*
X45327Y459274D01*
X43730Y460434D01*
X42334Y461830D01*
X41174Y463427D01*
X40278Y465186D01*
X39668Y467063D01*
X39599Y467501D01*
X49401Y467501D01*
X49401Y457699D01*
X48963Y457768D01*
G37*
%LPD*%
%LPC*%
G36*
X325163Y507768D02*
X325163Y507768D01*
X323286Y508378D01*
X321527Y509274D01*
X319930Y510434D01*
X318534Y511830D01*
X317374Y513427D01*
X316478Y515186D01*
X315868Y517063D01*
X315799Y517501D01*
X325601Y517501D01*
X325601Y507699D01*
X325163Y507768D01*
G37*
%LPD*%
%LPC*%
G36*
X325163Y357768D02*
X325163Y357768D01*
X323286Y358378D01*
X321527Y359274D01*
X319930Y360434D01*
X318534Y361830D01*
X317374Y363427D01*
X316478Y365186D01*
X315868Y367063D01*
X315799Y367501D01*
X325601Y367501D01*
X325601Y357699D01*
X325163Y357768D01*
G37*
%LPD*%
%LPC*%
G36*
X48962Y257781D02*
X48962Y257781D01*
X47084Y258391D01*
X45326Y259287D01*
X43729Y260448D01*
X42333Y261843D01*
X41173Y263440D01*
X40277Y265199D01*
X39666Y267077D01*
X39597Y267514D01*
X49399Y267514D01*
X49399Y257712D01*
X48962Y257781D01*
G37*
%LPD*%
%LPC*%
G36*
X167539Y472939D02*
X167539Y472939D01*
X167539Y481571D01*
X167677Y481549D01*
X169388Y480993D01*
X170991Y480176D01*
X172447Y479119D01*
X173719Y477847D01*
X174776Y476391D01*
X175593Y474788D01*
X176149Y473077D01*
X176171Y472939D01*
X167539Y472939D01*
G37*
%LPD*%
D10*
X215000Y319600D03*
X215000Y370400D03*
X165000Y519600D03*
X165000Y570400D03*
X215400Y620000D03*
X164600Y620000D03*
X165000Y370400D03*
X165000Y319600D03*
D11*
X202700Y680000D03*
D12*
X177300Y680000D03*
D11*
X328100Y620000D03*
D12*
X251900Y620000D03*
D11*
X128100Y670000D03*
D12*
X51900Y670000D03*
D11*
X51900Y620000D03*
D12*
X128100Y620000D03*
X202700Y270000D03*
D11*
X177300Y270000D03*
D13*
X177500Y740000D02*
X202500Y740000D01*
D14*
X201250Y800000D02*
X178750Y800000D01*
D12*
X165000Y470400D03*
X165000Y445000D03*
X165000Y419600D03*
X215000Y570400D03*
X215000Y545000D03*
X215000Y519600D03*
X215000Y470400D03*
X215000Y445000D03*
X215000Y419600D03*
D10*
X328100Y270000D03*
X251900Y270000D03*
X51900Y420000D03*
X128100Y420000D03*
X128100Y470000D03*
X51900Y470000D03*
X51900Y370000D03*
X128100Y370000D03*
X128100Y320000D03*
X51900Y320000D03*
X128098Y270013D03*
X51898Y270013D03*
X328100Y320000D03*
X251900Y320000D03*
X251900Y370000D03*
X328100Y370000D03*
X251900Y520000D03*
X328100Y520000D03*
X251900Y470000D03*
X328100Y470000D03*
X328100Y420000D03*
X251900Y420000D03*
X251900Y570000D03*
X328100Y570000D03*
X51900Y520000D03*
X128100Y520000D03*
X128100Y570000D03*
X51900Y570000D03*
D15*
X243000Y167000D03*
D16*
X243000Y120000D03*
X243000Y73000D03*
X190000Y167000D03*
X190000Y120000D03*
X190000Y73000D03*
X137000Y167000D03*
X137000Y120000D03*
X137000Y73000D03*
D17*
X103000Y740348D02*
X103000Y759652D01*
X37000Y759652D02*
X37000Y740348D01*
X60348Y781000D02*
X79652Y781000D01*
X343000Y759652D02*
X343000Y740348D01*
X277000Y740348D02*
X277000Y759652D01*
X300348Y781000D02*
X319652Y781000D01*
D18*
X215000Y319600D02*
X251898Y282713D01*
X251900Y270000D01*
X251900Y270000D01*
X251900Y175900D02*
X243000Y167000D01*
X251900Y175900D02*
X251900Y270000D01*
X251900Y320000D02*
X251900Y370000D01*
X251498Y370413D01*
X215000Y370400D01*
X199852Y385560D01*
X199852Y430045D01*
X214820Y445013D01*
X215000Y445000D01*
X251900Y520000D02*
X226900Y545000D01*
X215000Y545000D01*
X251900Y520000D02*
X280000Y491900D01*
X280000Y460000D01*
X270000Y450000D01*
X235400Y450000D02*
X215000Y470400D01*
X235400Y450000D02*
X270000Y450000D01*
X215000Y519600D02*
X165000Y519600D01*
X215000Y519600D02*
X251900Y482700D01*
X251900Y470000D01*
X215400Y570800D02*
X215400Y620000D01*
X215400Y570800D02*
X215000Y570400D01*
X234600Y590000D01*
X308100Y590000D02*
X328100Y570000D01*
X308100Y590000D02*
X234600Y590000D01*
X128100Y570000D02*
X128100Y620000D01*
X164600Y620000D01*
X128100Y470000D02*
X128100Y420000D01*
X128100Y470000D02*
X101900Y470000D01*
X51900Y520000D01*
X51900Y570000D01*
X128100Y520000D02*
X165000Y556900D01*
X165000Y570400D01*
X185000Y630400D02*
X194600Y640000D01*
X185000Y630400D02*
X185000Y590400D01*
X165000Y570400D01*
X231900Y640000D02*
X251900Y620000D01*
X231900Y640000D02*
X194600Y640000D01*
X150000Y460000D02*
X165000Y445000D01*
X150000Y460000D02*
X150000Y480000D01*
X140000Y490000D01*
X120000Y490000D01*
X90000Y520000D01*
X90000Y581900D02*
X51900Y620000D01*
X90000Y581900D02*
X90000Y520000D01*
X298100Y650000D02*
X328100Y620000D01*
X81900Y650000D02*
X51900Y620000D01*
X81900Y650000D02*
X298100Y650000D01*
X190000Y167000D02*
X167030Y144045D01*
X109852Y144045D01*
X89852Y164045D01*
X89852Y282092D01*
X144567Y340045D02*
X165000Y319600D01*
X144567Y340045D02*
X71930Y340045D01*
X51900Y320015D01*
X51900Y320000D01*
X89808Y282092D01*
X89852Y282092D01*
X128100Y370000D02*
X128500Y370400D01*
X165000Y370400D01*
X165000Y419600D01*
X215000Y419600D02*
X215398Y420013D01*
X251900Y420000D01*
X136998Y229713D02*
X137000Y167000D01*
X136998Y229713D02*
X177300Y270000D01*
X148130Y290045D02*
X128098Y270013D01*
X148130Y290045D02*
X189852Y290045D01*
X202698Y277198D01*
X202700Y270000D01*
M02*
