G04 EAGLE Gerber RS-274X export*
G75*
%MOMM*%
%FSLAX34Y34*%
%LPD*%
%INSilkscreen Bottom*%
%IPPOS*%
%AMOC8*
5,1,8,0,0,1.08239X$1,22.5*%
G01*
%ADD10C,0.152400*%
%ADD11C,0.127000*%
%ADD12C,0.101600*%


D10*
X280000Y206000D02*
X100000Y206000D01*
X100000Y34000D01*
X280000Y34000D01*
X280000Y206000D01*
D11*
X115000Y694000D02*
X115000Y795000D01*
X95400Y800000D01*
X44600Y800000D01*
X25000Y795000D01*
X25000Y694000D01*
X115000Y694000D01*
D12*
X77644Y804658D02*
X77644Y816342D01*
X78942Y804658D02*
X76346Y804658D01*
X76346Y816342D02*
X78942Y816342D01*
X71364Y816342D02*
X71364Y804658D01*
X64873Y804658D02*
X71364Y816342D01*
X64873Y816342D02*
X64873Y804658D01*
D11*
X355000Y795000D02*
X355000Y694000D01*
X355000Y795000D02*
X335400Y800000D01*
X284600Y800000D01*
X265000Y795000D01*
X265000Y694000D01*
X355000Y694000D01*
D12*
X328942Y806904D02*
X328942Y812096D01*
X328940Y812209D01*
X328934Y812322D01*
X328924Y812435D01*
X328910Y812548D01*
X328893Y812660D01*
X328871Y812771D01*
X328846Y812881D01*
X328816Y812991D01*
X328783Y813099D01*
X328746Y813206D01*
X328706Y813312D01*
X328661Y813416D01*
X328613Y813519D01*
X328562Y813620D01*
X328507Y813719D01*
X328449Y813816D01*
X328387Y813911D01*
X328322Y814004D01*
X328254Y814094D01*
X328183Y814182D01*
X328108Y814268D01*
X328031Y814351D01*
X327951Y814431D01*
X327868Y814508D01*
X327782Y814583D01*
X327694Y814654D01*
X327604Y814722D01*
X327511Y814787D01*
X327416Y814849D01*
X327319Y814907D01*
X327220Y814962D01*
X327119Y815013D01*
X327016Y815061D01*
X326912Y815106D01*
X326806Y815146D01*
X326699Y815183D01*
X326591Y815216D01*
X326481Y815246D01*
X326371Y815271D01*
X326260Y815293D01*
X326148Y815310D01*
X326035Y815324D01*
X325922Y815334D01*
X325809Y815340D01*
X325696Y815342D01*
X325583Y815340D01*
X325470Y815334D01*
X325357Y815324D01*
X325244Y815310D01*
X325132Y815293D01*
X325021Y815271D01*
X324911Y815246D01*
X324801Y815216D01*
X324693Y815183D01*
X324586Y815146D01*
X324480Y815106D01*
X324376Y815061D01*
X324273Y815013D01*
X324172Y814962D01*
X324073Y814907D01*
X323976Y814849D01*
X323881Y814787D01*
X323788Y814722D01*
X323698Y814654D01*
X323610Y814583D01*
X323524Y814508D01*
X323441Y814431D01*
X323361Y814351D01*
X323284Y814268D01*
X323209Y814182D01*
X323138Y814094D01*
X323070Y814004D01*
X323005Y813911D01*
X322943Y813816D01*
X322885Y813719D01*
X322830Y813620D01*
X322779Y813519D01*
X322731Y813416D01*
X322686Y813312D01*
X322646Y813206D01*
X322609Y813099D01*
X322576Y812991D01*
X322546Y812881D01*
X322521Y812771D01*
X322499Y812660D01*
X322482Y812548D01*
X322468Y812435D01*
X322458Y812322D01*
X322452Y812209D01*
X322450Y812096D01*
X322451Y812096D02*
X322451Y806904D01*
X322450Y806904D02*
X322452Y806791D01*
X322458Y806678D01*
X322468Y806565D01*
X322482Y806452D01*
X322499Y806340D01*
X322521Y806229D01*
X322546Y806119D01*
X322576Y806009D01*
X322609Y805901D01*
X322646Y805794D01*
X322686Y805688D01*
X322731Y805584D01*
X322779Y805481D01*
X322830Y805380D01*
X322885Y805281D01*
X322943Y805184D01*
X323005Y805089D01*
X323070Y804996D01*
X323138Y804906D01*
X323209Y804818D01*
X323284Y804732D01*
X323361Y804649D01*
X323441Y804569D01*
X323524Y804492D01*
X323610Y804417D01*
X323698Y804346D01*
X323788Y804278D01*
X323881Y804213D01*
X323976Y804151D01*
X324073Y804093D01*
X324172Y804038D01*
X324273Y803987D01*
X324376Y803939D01*
X324480Y803894D01*
X324586Y803854D01*
X324693Y803817D01*
X324801Y803784D01*
X324911Y803754D01*
X325021Y803729D01*
X325132Y803707D01*
X325244Y803690D01*
X325357Y803676D01*
X325470Y803666D01*
X325583Y803660D01*
X325696Y803658D01*
X325809Y803660D01*
X325922Y803666D01*
X326035Y803676D01*
X326148Y803690D01*
X326260Y803707D01*
X326371Y803729D01*
X326481Y803754D01*
X326591Y803784D01*
X326699Y803817D01*
X326806Y803854D01*
X326912Y803894D01*
X327016Y803939D01*
X327119Y803987D01*
X327220Y804038D01*
X327319Y804093D01*
X327416Y804151D01*
X327511Y804213D01*
X327604Y804278D01*
X327694Y804346D01*
X327782Y804417D01*
X327868Y804492D01*
X327951Y804569D01*
X328031Y804649D01*
X328108Y804732D01*
X328183Y804818D01*
X328254Y804906D01*
X328322Y804996D01*
X328387Y805089D01*
X328449Y805184D01*
X328507Y805281D01*
X328562Y805380D01*
X328613Y805481D01*
X328661Y805584D01*
X328706Y805688D01*
X328746Y805794D01*
X328783Y805901D01*
X328816Y806009D01*
X328846Y806119D01*
X328871Y806229D01*
X328893Y806340D01*
X328910Y806452D01*
X328924Y806565D01*
X328934Y806678D01*
X328940Y806791D01*
X328942Y806904D01*
X317131Y806904D02*
X317131Y815342D01*
X317131Y806904D02*
X317129Y806791D01*
X317123Y806678D01*
X317113Y806565D01*
X317099Y806452D01*
X317082Y806340D01*
X317060Y806229D01*
X317035Y806119D01*
X317005Y806009D01*
X316972Y805901D01*
X316935Y805794D01*
X316895Y805688D01*
X316850Y805584D01*
X316802Y805481D01*
X316751Y805380D01*
X316696Y805281D01*
X316638Y805184D01*
X316576Y805089D01*
X316511Y804996D01*
X316443Y804906D01*
X316372Y804818D01*
X316297Y804732D01*
X316220Y804649D01*
X316140Y804569D01*
X316057Y804492D01*
X315971Y804417D01*
X315883Y804346D01*
X315793Y804278D01*
X315700Y804213D01*
X315605Y804151D01*
X315508Y804093D01*
X315409Y804038D01*
X315308Y803987D01*
X315205Y803939D01*
X315101Y803894D01*
X314995Y803854D01*
X314888Y803817D01*
X314780Y803784D01*
X314670Y803754D01*
X314560Y803729D01*
X314449Y803707D01*
X314337Y803690D01*
X314224Y803676D01*
X314111Y803666D01*
X313998Y803660D01*
X313885Y803658D01*
X313772Y803660D01*
X313659Y803666D01*
X313546Y803676D01*
X313433Y803690D01*
X313321Y803707D01*
X313210Y803729D01*
X313100Y803754D01*
X312990Y803784D01*
X312882Y803817D01*
X312775Y803854D01*
X312669Y803894D01*
X312565Y803939D01*
X312462Y803987D01*
X312361Y804038D01*
X312262Y804093D01*
X312165Y804151D01*
X312070Y804213D01*
X311977Y804278D01*
X311887Y804346D01*
X311799Y804417D01*
X311713Y804492D01*
X311630Y804569D01*
X311550Y804649D01*
X311473Y804732D01*
X311398Y804818D01*
X311327Y804906D01*
X311259Y804996D01*
X311194Y805089D01*
X311132Y805184D01*
X311074Y805281D01*
X311019Y805380D01*
X310968Y805481D01*
X310920Y805584D01*
X310875Y805688D01*
X310835Y805794D01*
X310798Y805901D01*
X310765Y806009D01*
X310735Y806119D01*
X310710Y806229D01*
X310688Y806340D01*
X310671Y806452D01*
X310657Y806565D01*
X310647Y806678D01*
X310641Y806791D01*
X310639Y806904D01*
X310640Y806904D02*
X310640Y815342D01*
X302837Y815342D02*
X302837Y803658D01*
X306082Y815342D02*
X299591Y815342D01*
M02*
