G04 EAGLE Gerber RS-274X export*
G75*
%MOMM*%
%FSLAX34Y34*%
%LPD*%
%INSoldermask Bottom*%
%IPPOS*%
%AMOC8*
5,1,8,0,0,1.08239X$1,22.5*%
G01*
%ADD10C,2.203200*%
%ADD11R,1.981200X1.981200*%
%ADD12C,1.981200*%
%ADD13C,2.703200*%
%ADD14C,2.453200*%
%ADD15R,3.886200X3.886200*%
%ADD16C,3.886200*%
%ADD17C,2.133600*%


D10*
X215000Y319600D03*
X215000Y370400D03*
X165000Y519600D03*
X165000Y570400D03*
X215400Y620000D03*
X164600Y620000D03*
X165000Y370400D03*
X165000Y319600D03*
D11*
X202700Y680000D03*
D12*
X177300Y680000D03*
D11*
X328100Y620000D03*
D12*
X251900Y620000D03*
D11*
X128100Y670000D03*
D12*
X51900Y670000D03*
D11*
X51900Y620000D03*
D12*
X128100Y620000D03*
X202700Y270000D03*
D11*
X177300Y270000D03*
D13*
X177500Y740000D02*
X202500Y740000D01*
D14*
X201250Y800000D02*
X178750Y800000D01*
D12*
X165000Y470400D03*
X165000Y445000D03*
X165000Y419600D03*
X215000Y570400D03*
X215000Y545000D03*
X215000Y519600D03*
X215000Y470400D03*
X215000Y445000D03*
X215000Y419600D03*
D10*
X328100Y270000D03*
X251900Y270000D03*
X51900Y420000D03*
X128100Y420000D03*
X128100Y470000D03*
X51900Y470000D03*
X51900Y370000D03*
X128100Y370000D03*
X128100Y320000D03*
X51900Y320000D03*
X128098Y270013D03*
X51898Y270013D03*
X328100Y320000D03*
X251900Y320000D03*
X251900Y370000D03*
X328100Y370000D03*
X251900Y520000D03*
X328100Y520000D03*
X251900Y470000D03*
X328100Y470000D03*
X328100Y420000D03*
X251900Y420000D03*
X251900Y570000D03*
X328100Y570000D03*
X51900Y520000D03*
X128100Y520000D03*
X128100Y570000D03*
X51900Y570000D03*
D15*
X243000Y167000D03*
D16*
X243000Y120000D03*
X243000Y73000D03*
X190000Y167000D03*
X190000Y120000D03*
X190000Y73000D03*
X137000Y167000D03*
X137000Y120000D03*
X137000Y73000D03*
D17*
X103000Y740348D02*
X103000Y759652D01*
X37000Y759652D02*
X37000Y740348D01*
X60348Y781000D02*
X79652Y781000D01*
X343000Y759652D02*
X343000Y740348D01*
X277000Y740348D02*
X277000Y759652D01*
X300348Y781000D02*
X319652Y781000D01*
M02*
